<?xml version="1.0" encoding="utf-8" standalone="no"?>
<!DOCTYPE svg PUBLIC "-//W3C//DTD SVG 1.1//EN"
  "http://www.w3.org/Graphics/SVG/1.1/DTD/svg11.dtd">
<svg xmlns:xlink="http://www.w3.org/1999/xlink" width="792pt" height="244.8pt" viewBox="0 0 792 244.8" xmlns="http://www.w3.org/2000/svg" version="1.1">
 <metadata>
  <rdf:RDF xmlns:dc="http://purl.org/dc/elements/1.1/" xmlns:cc="http://creativecommons.org/ns#" xmlns:rdf="http://www.w3.org/1999/02/22-rdf-syntax-ns#">
   <cc:Work>
    <dc:type rdf:resource="http://purl.org/dc/dcmitype/StillImage"/>
    <dc:format>image/svg+xml</dc:format>
    <dc:creator>
     <cc:Agent>
      <dc:title>Matplotlib v3.10.5, https://matplotlib.org/</dc:title>
     </cc:Agent>
    </dc:creator>
   </cc:Work>
  </rdf:RDF>
 </metadata>
 <defs>
  <style type="text/css">*{stroke-linejoin: round; stroke-linecap: butt}</style>
 </defs>
 <g id="figure_1">
  <g id="patch_1">
   <path d="M 0 244.8 
L 792 244.8 
L 792 0 
L 0 0 
z
" style="fill: #ffffff"/>
  </g>
  <g id="axes_1">
   <g id="patch_2">
    <path d="M 95.04 156.672 
L 324.72 156.672 
L 324.72 29.376 
L 95.04 29.376 
z
" style="fill: #ffffff"/>
   </g>
   <g id="patch_3">
    <path d="M 95.04 68.226078 
L 271.716923 68.226078 
L 271.716923 35.162182 
L 95.04 35.162182 
z
" clip-path="url(#p968a87eab6)" style="fill: #6b7b8a"/>
   </g>
   <g id="patch_4">
    <path d="M 95.04 109.555948 
L 225.155975 109.555948 
L 225.155975 76.492052 
L 95.04 76.492052 
z
" clip-path="url(#p968a87eab6)" style="fill: #2f6f9f"/>
   </g>
   <g id="patch_5">
    <path d="M 95.04 150.885818 
L 219.773884 150.885818 
L 219.773884 117.821922 
L 95.04 117.821922 
z
" clip-path="url(#p968a87eab6)" style="fill: #2f7d4f"/>
   </g>
   <g id="matplotlib.axis_1">
    <g id="xtick_1">
     <g id="line2d_1">
      <defs>
       <path id="mb5bf6e1ebc" d="M 0 0 
L 0 3.5 
" style="stroke: #000000; stroke-width: 0.8"/>
      </defs>
      <g>
       <use xlink:href="#mb5bf6e1ebc" x="95.04" y="156.672" style="stroke: #000000; stroke-width: 0.8"/>
      </g>
     </g>
     <g id="text_1">
      <!-- 0k -->
      <g transform="translate(89.571094 170.510594) scale(0.09 -0.09)">
       <defs>
        <path id="DejaVuSans-30" d="M 2034 4250 
Q 1547 4250 1301 3770 
Q 1056 3291 1056 2328 
Q 1056 1369 1301 889 
Q 1547 409 2034 409 
Q 2525 409 2770 889 
Q 3016 1369 3016 2328 
Q 3016 3291 2770 3770 
Q 2525 4250 2034 4250 
z
M 2034 4750 
Q 2819 4750 3233 4129 
Q 3647 3509 3647 2328 
Q 3647 1150 3233 529 
Q 2819 -91 2034 -91 
Q 1250 -91 836 529 
Q 422 1150 422 2328 
Q 422 3509 836 4129 
Q 1250 4750 2034 4750 
z
" transform="scale(0.015625)"/>
        <path id="DejaVuSans-6b" d="M 581 4863 
L 1159 4863 
L 1159 1991 
L 2875 3500 
L 3609 3500 
L 1753 1863 
L 3688 0 
L 2938 0 
L 1159 1709 
L 1159 0 
L 581 0 
L 581 4863 
z
" transform="scale(0.015625)"/>
       </defs>
       <use xlink:href="#DejaVuSans-30"/>
       <use xlink:href="#DejaVuSans-6b" transform="translate(63.623047 0)"/>
      </g>
     </g>
    </g>
    <g id="xtick_2">
     <g id="line2d_2">
      <g>
       <use xlink:href="#mb5bf6e1ebc" x="130.265411" y="156.672" style="stroke: #000000; stroke-width: 0.8"/>
      </g>
     </g>
     <g id="text_2">
      <!-- 100k -->
      <g transform="translate(119.070255 170.510594) scale(0.09 -0.09)">
       <defs>
        <path id="DejaVuSans-31" d="M 794 531 
L 1825 531 
L 1825 4091 
L 703 3866 
L 703 4441 
L 1819 4666 
L 2450 4666 
L 2450 531 
L 3481 531 
L 3481 0 
L 794 0 
L 794 531 
z
" transform="scale(0.015625)"/>
       </defs>
       <use xlink:href="#DejaVuSans-31"/>
       <use xlink:href="#DejaVuSans-30" transform="translate(63.623047 0)"/>
       <use xlink:href="#DejaVuSans-30" transform="translate(127.246094 0)"/>
       <use xlink:href="#DejaVuSans-6b" transform="translate(190.869141 0)"/>
      </g>
     </g>
    </g>
    <g id="xtick_3">
     <g id="line2d_3">
      <g>
       <use xlink:href="#mb5bf6e1ebc" x="165.490822" y="156.672" style="stroke: #000000; stroke-width: 0.8"/>
      </g>
     </g>
     <g id="text_3">
      <!-- 200k -->
      <g transform="translate(154.295666 170.510594) scale(0.09 -0.09)">
       <defs>
        <path id="DejaVuSans-32" d="M 1228 531 
L 3431 531 
L 3431 0 
L 469 0 
L 469 531 
Q 828 903 1448 1529 
Q 2069 2156 2228 2338 
Q 2531 2678 2651 2914 
Q 2772 3150 2772 3378 
Q 2772 3750 2511 3984 
Q 2250 4219 1831 4219 
Q 1534 4219 1204 4116 
Q 875 4013 500 3803 
L 500 4441 
Q 881 4594 1212 4672 
Q 1544 4750 1819 4750 
Q 2544 4750 2975 4387 
Q 3406 4025 3406 3419 
Q 3406 3131 3298 2873 
Q 3191 2616 2906 2266 
Q 2828 2175 2409 1742 
Q 1991 1309 1228 531 
z
" transform="scale(0.015625)"/>
       </defs>
       <use xlink:href="#DejaVuSans-32"/>
       <use xlink:href="#DejaVuSans-30" transform="translate(63.623047 0)"/>
       <use xlink:href="#DejaVuSans-30" transform="translate(127.246094 0)"/>
       <use xlink:href="#DejaVuSans-6b" transform="translate(190.869141 0)"/>
      </g>
     </g>
    </g>
    <g id="xtick_4">
     <g id="line2d_4">
      <g>
       <use xlink:href="#mb5bf6e1ebc" x="200.716233" y="156.672" style="stroke: #000000; stroke-width: 0.8"/>
      </g>
     </g>
     <g id="text_4">
      <!-- 300k -->
      <g transform="translate(189.521076 170.510594) scale(0.09 -0.09)">
       <defs>
        <path id="DejaVuSans-33" d="M 2597 2516 
Q 3050 2419 3304 2112 
Q 3559 1806 3559 1356 
Q 3559 666 3084 287 
Q 2609 -91 1734 -91 
Q 1441 -91 1130 -33 
Q 819 25 488 141 
L 488 750 
Q 750 597 1062 519 
Q 1375 441 1716 441 
Q 2309 441 2620 675 
Q 2931 909 2931 1356 
Q 2931 1769 2642 2001 
Q 2353 2234 1838 2234 
L 1294 2234 
L 1294 2753 
L 1863 2753 
Q 2328 2753 2575 2939 
Q 2822 3125 2822 3475 
Q 2822 3834 2567 4026 
Q 2313 4219 1838 4219 
Q 1578 4219 1281 4162 
Q 984 4106 628 3988 
L 628 4550 
Q 988 4650 1302 4700 
Q 1616 4750 1894 4750 
Q 2613 4750 3031 4423 
Q 3450 4097 3450 3541 
Q 3450 3153 3228 2886 
Q 3006 2619 2597 2516 
z
" transform="scale(0.015625)"/>
       </defs>
       <use xlink:href="#DejaVuSans-33"/>
       <use xlink:href="#DejaVuSans-30" transform="translate(63.623047 0)"/>
       <use xlink:href="#DejaVuSans-30" transform="translate(127.246094 0)"/>
       <use xlink:href="#DejaVuSans-6b" transform="translate(190.869141 0)"/>
      </g>
     </g>
    </g>
    <g id="xtick_5">
     <g id="line2d_5">
      <g>
       <use xlink:href="#mb5bf6e1ebc" x="235.941644" y="156.672" style="stroke: #000000; stroke-width: 0.8"/>
      </g>
     </g>
     <g id="text_5">
      <!-- 400k -->
      <g transform="translate(224.746487 170.510594) scale(0.09 -0.09)">
       <defs>
        <path id="DejaVuSans-34" d="M 2419 4116 
L 825 1625 
L 2419 1625 
L 2419 4116 
z
M 2253 4666 
L 3047 4666 
L 3047 1625 
L 3713 1625 
L 3713 1100 
L 3047 1100 
L 3047 0 
L 2419 0 
L 2419 1100 
L 313 1100 
L 313 1709 
L 2253 4666 
z
" transform="scale(0.015625)"/>
       </defs>
       <use xlink:href="#DejaVuSans-34"/>
       <use xlink:href="#DejaVuSans-30" transform="translate(63.623047 0)"/>
       <use xlink:href="#DejaVuSans-30" transform="translate(127.246094 0)"/>
       <use xlink:href="#DejaVuSans-6b" transform="translate(190.869141 0)"/>
      </g>
     </g>
    </g>
    <g id="xtick_6">
     <g id="line2d_6">
      <g>
       <use xlink:href="#mb5bf6e1ebc" x="271.167054" y="156.672" style="stroke: #000000; stroke-width: 0.8"/>
      </g>
     </g>
     <g id="text_6">
      <!-- 500k -->
      <g transform="translate(259.971898 170.510594) scale(0.09 -0.09)">
       <defs>
        <path id="DejaVuSans-35" d="M 691 4666 
L 3169 4666 
L 3169 4134 
L 1269 4134 
L 1269 2991 
Q 1406 3038 1543 3061 
Q 1681 3084 1819 3084 
Q 2600 3084 3056 2656 
Q 3513 2228 3513 1497 
Q 3513 744 3044 326 
Q 2575 -91 1722 -91 
Q 1428 -91 1123 -41 
Q 819 9 494 109 
L 494 744 
Q 775 591 1075 516 
Q 1375 441 1709 441 
Q 2250 441 2565 725 
Q 2881 1009 2881 1497 
Q 2881 1984 2565 2268 
Q 2250 2553 1709 2553 
Q 1456 2553 1204 2497 
Q 953 2441 691 2322 
L 691 4666 
z
" transform="scale(0.015625)"/>
       </defs>
       <use xlink:href="#DejaVuSans-35"/>
       <use xlink:href="#DejaVuSans-30" transform="translate(63.623047 0)"/>
       <use xlink:href="#DejaVuSans-30" transform="translate(127.246094 0)"/>
       <use xlink:href="#DejaVuSans-6b" transform="translate(190.869141 0)"/>
      </g>
     </g>
    </g>
    <g id="xtick_7">
     <g id="line2d_7">
      <g>
       <use xlink:href="#mb5bf6e1ebc" x="306.392465" y="156.672" style="stroke: #000000; stroke-width: 0.8"/>
      </g>
     </g>
     <g id="text_7">
      <!-- 600k -->
      <g transform="translate(295.197309 170.510594) scale(0.09 -0.09)">
       <defs>
        <path id="DejaVuSans-36" d="M 2113 2584 
Q 1688 2584 1439 2293 
Q 1191 2003 1191 1497 
Q 1191 994 1439 701 
Q 1688 409 2113 409 
Q 2538 409 2786 701 
Q 3034 994 3034 1497 
Q 3034 2003 2786 2293 
Q 2538 2584 2113 2584 
z
M 3366 4563 
L 3366 3988 
Q 3128 4100 2886 4159 
Q 2644 4219 2406 4219 
Q 1781 4219 1451 3797 
Q 1122 3375 1075 2522 
Q 1259 2794 1537 2939 
Q 1816 3084 2150 3084 
Q 2853 3084 3261 2657 
Q 3669 2231 3669 1497 
Q 3669 778 3244 343 
Q 2819 -91 2113 -91 
Q 1303 -91 875 529 
Q 447 1150 447 2328 
Q 447 3434 972 4092 
Q 1497 4750 2381 4750 
Q 2619 4750 2861 4703 
Q 3103 4656 3366 4563 
z
" transform="scale(0.015625)"/>
       </defs>
       <use xlink:href="#DejaVuSans-36"/>
       <use xlink:href="#DejaVuSans-30" transform="translate(63.623047 0)"/>
       <use xlink:href="#DejaVuSans-30" transform="translate(127.246094 0)"/>
       <use xlink:href="#DejaVuSans-6b" transform="translate(190.869141 0)"/>
      </g>
     </g>
    </g>
    <g id="text_8">
     <!-- exact RT sequences (thousands) -->
     <g transform="translate(136.773281 183.220906) scale(0.09 -0.09)">
      <defs>
       <path id="DejaVuSans-65" d="M 3597 1894 
L 3597 1613 
L 953 1613 
Q 991 1019 1311 708 
Q 1631 397 2203 397 
Q 2534 397 2845 478 
Q 3156 559 3463 722 
L 3463 178 
Q 3153 47 2828 -22 
Q 2503 -91 2169 -91 
Q 1331 -91 842 396 
Q 353 884 353 1716 
Q 353 2575 817 3079 
Q 1281 3584 2069 3584 
Q 2775 3584 3186 3129 
Q 3597 2675 3597 1894 
z
M 3022 2063 
Q 3016 2534 2758 2815 
Q 2500 3097 2075 3097 
Q 1594 3097 1305 2825 
Q 1016 2553 972 2059 
L 3022 2063 
z
" transform="scale(0.015625)"/>
       <path id="DejaVuSans-78" d="M 3513 3500 
L 2247 1797 
L 3578 0 
L 2900 0 
L 1881 1375 
L 863 0 
L 184 0 
L 1544 1831 
L 300 3500 
L 978 3500 
L 1906 2253 
L 2834 3500 
L 3513 3500 
z
" transform="scale(0.015625)"/>
       <path id="DejaVuSans-61" d="M 2194 1759 
Q 1497 1759 1228 1600 
Q 959 1441 959 1056 
Q 959 750 1161 570 
Q 1363 391 1709 391 
Q 2188 391 2477 730 
Q 2766 1069 2766 1631 
L 2766 1759 
L 2194 1759 
z
M 3341 1997 
L 3341 0 
L 2766 0 
L 2766 531 
Q 2569 213 2275 61 
Q 1981 -91 1556 -91 
Q 1019 -91 701 211 
Q 384 513 384 1019 
Q 384 1609 779 1909 
Q 1175 2209 1959 2209 
L 2766 2209 
L 2766 2266 
Q 2766 2663 2505 2880 
Q 2244 3097 1772 3097 
Q 1472 3097 1187 3025 
Q 903 2953 641 2809 
L 641 3341 
Q 956 3463 1253 3523 
Q 1550 3584 1831 3584 
Q 2591 3584 2966 3190 
Q 3341 2797 3341 1997 
z
" transform="scale(0.015625)"/>
       <path id="DejaVuSans-63" d="M 3122 3366 
L 3122 2828 
Q 2878 2963 2633 3030 
Q 2388 3097 2138 3097 
Q 1578 3097 1268 2742 
Q 959 2388 959 1747 
Q 959 1106 1268 751 
Q 1578 397 2138 397 
Q 2388 397 2633 464 
Q 2878 531 3122 666 
L 3122 134 
Q 2881 22 2623 -34 
Q 2366 -91 2075 -91 
Q 1284 -91 818 406 
Q 353 903 353 1747 
Q 353 2603 823 3093 
Q 1294 3584 2113 3584 
Q 2378 3584 2631 3529 
Q 2884 3475 3122 3366 
z
" transform="scale(0.015625)"/>
       <path id="DejaVuSans-74" d="M 1172 4494 
L 1172 3500 
L 2356 3500 
L 2356 3053 
L 1172 3053 
L 1172 1153 
Q 1172 725 1289 603 
Q 1406 481 1766 481 
L 2356 481 
L 2356 0 
L 1766 0 
Q 1100 0 847 248 
Q 594 497 594 1153 
L 594 3053 
L 172 3053 
L 172 3500 
L 594 3500 
L 594 4494 
L 1172 4494 
z
" transform="scale(0.015625)"/>
       <path id="DejaVuSans-20" transform="scale(0.015625)"/>
       <path id="DejaVuSans-52" d="M 2841 2188 
Q 3044 2119 3236 1894 
Q 3428 1669 3622 1275 
L 4263 0 
L 3584 0 
L 2988 1197 
Q 2756 1666 2539 1819 
Q 2322 1972 1947 1972 
L 1259 1972 
L 1259 0 
L 628 0 
L 628 4666 
L 2053 4666 
Q 2853 4666 3247 4331 
Q 3641 3997 3641 3322 
Q 3641 2881 3436 2590 
Q 3231 2300 2841 2188 
z
M 1259 4147 
L 1259 2491 
L 2053 2491 
Q 2509 2491 2742 2702 
Q 2975 2913 2975 3322 
Q 2975 3731 2742 3939 
Q 2509 4147 2053 4147 
L 1259 4147 
z
" transform="scale(0.015625)"/>
       <path id="DejaVuSans-54" d="M -19 4666 
L 3928 4666 
L 3928 4134 
L 2272 4134 
L 2272 0 
L 1638 0 
L 1638 4134 
L -19 4134 
L -19 4666 
z
" transform="scale(0.015625)"/>
       <path id="DejaVuSans-73" d="M 2834 3397 
L 2834 2853 
Q 2591 2978 2328 3040 
Q 2066 3103 1784 3103 
Q 1356 3103 1142 2972 
Q 928 2841 928 2578 
Q 928 2378 1081 2264 
Q 1234 2150 1697 2047 
L 1894 2003 
Q 2506 1872 2764 1633 
Q 3022 1394 3022 966 
Q 3022 478 2636 193 
Q 2250 -91 1575 -91 
Q 1294 -91 989 -36 
Q 684 19 347 128 
L 347 722 
Q 666 556 975 473 
Q 1284 391 1588 391 
Q 1994 391 2212 530 
Q 2431 669 2431 922 
Q 2431 1156 2273 1281 
Q 2116 1406 1581 1522 
L 1381 1569 
Q 847 1681 609 1914 
Q 372 2147 372 2553 
Q 372 3047 722 3315 
Q 1072 3584 1716 3584 
Q 2034 3584 2315 3537 
Q 2597 3491 2834 3397 
z
" transform="scale(0.015625)"/>
       <path id="DejaVuSans-71" d="M 947 1747 
Q 947 1113 1208 752 
Q 1469 391 1925 391 
Q 2381 391 2643 752 
Q 2906 1113 2906 1747 
Q 2906 2381 2643 2742 
Q 2381 3103 1925 3103 
Q 1469 3103 1208 2742 
Q 947 2381 947 1747 
z
M 2906 525 
Q 2725 213 2448 61 
Q 2172 -91 1784 -91 
Q 1150 -91 751 415 
Q 353 922 353 1747 
Q 353 2572 751 3078 
Q 1150 3584 1784 3584 
Q 2172 3584 2448 3432 
Q 2725 3281 2906 2969 
L 2906 3500 
L 3481 3500 
L 3481 -1331 
L 2906 -1331 
L 2906 525 
z
" transform="scale(0.015625)"/>
       <path id="DejaVuSans-75" d="M 544 1381 
L 544 3500 
L 1119 3500 
L 1119 1403 
Q 1119 906 1312 657 
Q 1506 409 1894 409 
Q 2359 409 2629 706 
Q 2900 1003 2900 1516 
L 2900 3500 
L 3475 3500 
L 3475 0 
L 2900 0 
L 2900 538 
Q 2691 219 2414 64 
Q 2138 -91 1772 -91 
Q 1169 -91 856 284 
Q 544 659 544 1381 
z
M 1991 3584 
L 1991 3584 
z
" transform="scale(0.015625)"/>
       <path id="DejaVuSans-6e" d="M 3513 2113 
L 3513 0 
L 2938 0 
L 2938 2094 
Q 2938 2591 2744 2837 
Q 2550 3084 2163 3084 
Q 1697 3084 1428 2787 
Q 1159 2491 1159 1978 
L 1159 0 
L 581 0 
L 581 3500 
L 1159 3500 
L 1159 2956 
Q 1366 3272 1645 3428 
Q 1925 3584 2291 3584 
Q 2894 3584 3203 3211 
Q 3513 2838 3513 2113 
z
" transform="scale(0.015625)"/>
       <path id="DejaVuSans-28" d="M 1984 4856 
Q 1566 4138 1362 3434 
Q 1159 2731 1159 2009 
Q 1159 1288 1364 580 
Q 1569 -128 1984 -844 
L 1484 -844 
Q 1016 -109 783 600 
Q 550 1309 550 2009 
Q 550 2706 781 3412 
Q 1013 4119 1484 4856 
L 1984 4856 
z
" transform="scale(0.015625)"/>
       <path id="DejaVuSans-68" d="M 3513 2113 
L 3513 0 
L 2938 0 
L 2938 2094 
Q 2938 2591 2744 2837 
Q 2550 3084 2163 3084 
Q 1697 3084 1428 2787 
Q 1159 2491 1159 1978 
L 1159 0 
L 581 0 
L 581 4863 
L 1159 4863 
L 1159 2956 
Q 1366 3272 1645 3428 
Q 1925 3584 2291 3584 
Q 2894 3584 3203 3211 
Q 3513 2838 3513 2113 
z
" transform="scale(0.015625)"/>
       <path id="DejaVuSans-6f" d="M 1959 3097 
Q 1497 3097 1228 2736 
Q 959 2375 959 1747 
Q 959 1119 1226 758 
Q 1494 397 1959 397 
Q 2419 397 2687 759 
Q 2956 1122 2956 1747 
Q 2956 2369 2687 2733 
Q 2419 3097 1959 3097 
z
M 1959 3584 
Q 2709 3584 3137 3096 
Q 3566 2609 3566 1747 
Q 3566 888 3137 398 
Q 2709 -91 1959 -91 
Q 1206 -91 779 398 
Q 353 888 353 1747 
Q 353 2609 779 3096 
Q 1206 3584 1959 3584 
z
" transform="scale(0.015625)"/>
       <path id="DejaVuSans-64" d="M 2906 2969 
L 2906 4863 
L 3481 4863 
L 3481 0 
L 2906 0 
L 2906 525 
Q 2725 213 2448 61 
Q 2172 -91 1784 -91 
Q 1150 -91 751 415 
Q 353 922 353 1747 
Q 353 2572 751 3078 
Q 1150 3584 1784 3584 
Q 2172 3584 2448 3432 
Q 2725 3281 2906 2969 
z
M 947 1747 
Q 947 1113 1208 752 
Q 1469 391 1925 391 
Q 2381 391 2643 752 
Q 2906 1113 2906 1747 
Q 2906 2381 2643 2742 
Q 2381 3103 1925 3103 
Q 1469 3103 1208 2742 
Q 947 2381 947 1747 
z
" transform="scale(0.015625)"/>
       <path id="DejaVuSans-29" d="M 513 4856 
L 1013 4856 
Q 1481 4119 1714 3412 
Q 1947 2706 1947 2009 
Q 1947 1309 1714 600 
Q 1481 -109 1013 -844 
L 513 -844 
Q 928 -128 1133 580 
Q 1338 1288 1338 2009 
Q 1338 2731 1133 3434 
Q 928 4138 513 4856 
z
" transform="scale(0.015625)"/>
      </defs>
      <use xlink:href="#DejaVuSans-65"/>
      <use xlink:href="#DejaVuSans-78" transform="translate(59.773438 0)"/>
      <use xlink:href="#DejaVuSans-61" transform="translate(118.953125 0)"/>
      <use xlink:href="#DejaVuSans-63" transform="translate(180.232422 0)"/>
      <use xlink:href="#DejaVuSans-74" transform="translate(235.212891 0)"/>
      <use xlink:href="#DejaVuSans-20" transform="translate(274.421875 0)"/>
      <use xlink:href="#DejaVuSans-52" transform="translate(306.208984 0)"/>
      <use xlink:href="#DejaVuSans-54" transform="translate(368.441406 0)"/>
      <use xlink:href="#DejaVuSans-20" transform="translate(429.525391 0)"/>
      <use xlink:href="#DejaVuSans-73" transform="translate(461.3125 0)"/>
      <use xlink:href="#DejaVuSans-65" transform="translate(513.412109 0)"/>
      <use xlink:href="#DejaVuSans-71" transform="translate(574.935547 0)"/>
      <use xlink:href="#DejaVuSans-75" transform="translate(638.412109 0)"/>
      <use xlink:href="#DejaVuSans-65" transform="translate(701.791016 0)"/>
      <use xlink:href="#DejaVuSans-6e" transform="translate(763.314453 0)"/>
      <use xlink:href="#DejaVuSans-63" transform="translate(826.693359 0)"/>
      <use xlink:href="#DejaVuSans-65" transform="translate(881.673828 0)"/>
      <use xlink:href="#DejaVuSans-73" transform="translate(943.197266 0)"/>
      <use xlink:href="#DejaVuSans-20" transform="translate(995.296875 0)"/>
      <use xlink:href="#DejaVuSans-28" transform="translate(1027.083984 0)"/>
      <use xlink:href="#DejaVuSans-74" transform="translate(1066.097656 0)"/>
      <use xlink:href="#DejaVuSans-68" transform="translate(1105.306641 0)"/>
      <use xlink:href="#DejaVuSans-6f" transform="translate(1168.685547 0)"/>
      <use xlink:href="#DejaVuSans-75" transform="translate(1229.867188 0)"/>
      <use xlink:href="#DejaVuSans-73" transform="translate(1293.246094 0)"/>
      <use xlink:href="#DejaVuSans-61" transform="translate(1345.345703 0)"/>
      <use xlink:href="#DejaVuSans-6e" transform="translate(1406.625 0)"/>
      <use xlink:href="#DejaVuSans-64" transform="translate(1470.003906 0)"/>
      <use xlink:href="#DejaVuSans-73" transform="translate(1533.480469 0)"/>
      <use xlink:href="#DejaVuSans-29" transform="translate(1585.580078 0)"/>
     </g>
    </g>
   </g>
   <g id="matplotlib.axis_2">
    <g id="ytick_1">
     <g id="line2d_8">
      <defs>
       <path id="mdfff219129" d="M 0 0 
L -3.5 0 
" style="stroke: #000000; stroke-width: 0.8"/>
      </defs>
      <g>
       <use xlink:href="#mdfff219129" x="95.04" y="51.69413" style="stroke: #000000; stroke-width: 0.8"/>
      </g>
     </g>
     <g id="text_9">
      <!-- exact RT catalogue -->
      <g transform="translate(16.383359 54.543544) scale(0.075 -0.075)">
       <defs>
        <path id="DejaVuSans-6c" d="M 603 4863 
L 1178 4863 
L 1178 0 
L 603 0 
L 603 4863 
z
" transform="scale(0.015625)"/>
        <path id="DejaVuSans-67" d="M 2906 1791 
Q 2906 2416 2648 2759 
Q 2391 3103 1925 3103 
Q 1463 3103 1205 2759 
Q 947 2416 947 1791 
Q 947 1169 1205 825 
Q 1463 481 1925 481 
Q 2391 481 2648 825 
Q 2906 1169 2906 1791 
z
M 3481 434 
Q 3481 -459 3084 -895 
Q 2688 -1331 1869 -1331 
Q 1566 -1331 1297 -1286 
Q 1028 -1241 775 -1147 
L 775 -588 
Q 1028 -725 1275 -790 
Q 1522 -856 1778 -856 
Q 2344 -856 2625 -561 
Q 2906 -266 2906 331 
L 2906 616 
Q 2728 306 2450 153 
Q 2172 0 1784 0 
Q 1141 0 747 490 
Q 353 981 353 1791 
Q 353 2603 747 3093 
Q 1141 3584 1784 3584 
Q 2172 3584 2450 3431 
Q 2728 3278 2906 2969 
L 2906 3500 
L 3481 3500 
L 3481 434 
z
" transform="scale(0.015625)"/>
       </defs>
       <use xlink:href="#DejaVuSans-65"/>
       <use xlink:href="#DejaVuSans-78" transform="translate(59.773438 0)"/>
       <use xlink:href="#DejaVuSans-61" transform="translate(118.953125 0)"/>
       <use xlink:href="#DejaVuSans-63" transform="translate(180.232422 0)"/>
       <use xlink:href="#DejaVuSans-74" transform="translate(235.212891 0)"/>
       <use xlink:href="#DejaVuSans-20" transform="translate(274.421875 0)"/>
       <use xlink:href="#DejaVuSans-52" transform="translate(306.208984 0)"/>
       <use xlink:href="#DejaVuSans-54" transform="translate(368.441406 0)"/>
       <use xlink:href="#DejaVuSans-20" transform="translate(429.525391 0)"/>
       <use xlink:href="#DejaVuSans-63" transform="translate(461.3125 0)"/>
       <use xlink:href="#DejaVuSans-61" transform="translate(516.292969 0)"/>
       <use xlink:href="#DejaVuSans-74" transform="translate(577.572266 0)"/>
       <use xlink:href="#DejaVuSans-61" transform="translate(616.78125 0)"/>
       <use xlink:href="#DejaVuSans-6c" transform="translate(678.060547 0)"/>
       <use xlink:href="#DejaVuSans-6f" transform="translate(705.84375 0)"/>
       <use xlink:href="#DejaVuSans-67" transform="translate(767.025391 0)"/>
       <use xlink:href="#DejaVuSans-75" transform="translate(830.501953 0)"/>
       <use xlink:href="#DejaVuSans-65" transform="translate(893.880859 0)"/>
      </g>
     </g>
    </g>
    <g id="ytick_2">
     <g id="line2d_9">
      <g>
       <use xlink:href="#mdfff219129" x="95.04" y="93.024" style="stroke: #000000; stroke-width: 0.8"/>
      </g>
     </g>
     <g id="text_10">
      <!-- eligible (g5a) -->
      <g transform="translate(38.588047 95.873414) scale(0.075 -0.075)">
       <defs>
        <path id="DejaVuSans-69" d="M 603 3500 
L 1178 3500 
L 1178 0 
L 603 0 
L 603 3500 
z
M 603 4863 
L 1178 4863 
L 1178 4134 
L 603 4134 
L 603 4863 
z
" transform="scale(0.015625)"/>
        <path id="DejaVuSans-62" d="M 3116 1747 
Q 3116 2381 2855 2742 
Q 2594 3103 2138 3103 
Q 1681 3103 1420 2742 
Q 1159 2381 1159 1747 
Q 1159 1113 1420 752 
Q 1681 391 2138 391 
Q 2594 391 2855 752 
Q 3116 1113 3116 1747 
z
M 1159 2969 
Q 1341 3281 1617 3432 
Q 1894 3584 2278 3584 
Q 2916 3584 3314 3078 
Q 3713 2572 3713 1747 
Q 3713 922 3314 415 
Q 2916 -91 2278 -91 
Q 1894 -91 1617 61 
Q 1341 213 1159 525 
L 1159 0 
L 581 0 
L 581 4863 
L 1159 4863 
L 1159 2969 
z
" transform="scale(0.015625)"/>
       </defs>
       <use xlink:href="#DejaVuSans-65"/>
       <use xlink:href="#DejaVuSans-6c" transform="translate(61.523438 0)"/>
       <use xlink:href="#DejaVuSans-69" transform="translate(89.306641 0)"/>
       <use xlink:href="#DejaVuSans-67" transform="translate(117.089844 0)"/>
       <use xlink:href="#DejaVuSans-69" transform="translate(180.566406 0)"/>
       <use xlink:href="#DejaVuSans-62" transform="translate(208.349609 0)"/>
       <use xlink:href="#DejaVuSans-6c" transform="translate(271.826172 0)"/>
       <use xlink:href="#DejaVuSans-65" transform="translate(299.609375 0)"/>
       <use xlink:href="#DejaVuSans-20" transform="translate(361.132812 0)"/>
       <use xlink:href="#DejaVuSans-28" transform="translate(392.919922 0)"/>
       <use xlink:href="#DejaVuSans-67" transform="translate(431.933594 0)"/>
       <use xlink:href="#DejaVuSans-35" transform="translate(495.410156 0)"/>
       <use xlink:href="#DejaVuSans-61" transform="translate(559.033203 0)"/>
       <use xlink:href="#DejaVuSans-29" transform="translate(620.3125 0)"/>
      </g>
     </g>
    </g>
    <g id="ytick_3">
     <g id="line2d_10">
      <g>
       <use xlink:href="#mdfff219129" x="95.04" y="134.35387" style="stroke: #000000; stroke-width: 0.8"/>
      </g>
     </g>
     <g id="text_11">
      <!-- inspectable (g5) -->
      <g transform="translate(27.031016 137.203284) scale(0.075 -0.075)">
       <defs>
        <path id="DejaVuSans-70" d="M 1159 525 
L 1159 -1331 
L 581 -1331 
L 581 3500 
L 1159 3500 
L 1159 2969 
Q 1341 3281 1617 3432 
Q 1894 3584 2278 3584 
Q 2916 3584 3314 3078 
Q 3713 2572 3713 1747 
Q 3713 922 3314 415 
Q 2916 -91 2278 -91 
Q 1894 -91 1617 61 
Q 1341 213 1159 525 
z
M 3116 1747 
Q 3116 2381 2855 2742 
Q 2594 3103 2138 3103 
Q 1681 3103 1420 2742 
Q 1159 2381 1159 1747 
Q 1159 1113 1420 752 
Q 1681 391 2138 391 
Q 2594 391 2855 752 
Q 3116 1113 3116 1747 
z
" transform="scale(0.015625)"/>
       </defs>
       <use xlink:href="#DejaVuSans-69"/>
       <use xlink:href="#DejaVuSans-6e" transform="translate(27.783203 0)"/>
       <use xlink:href="#DejaVuSans-73" transform="translate(91.162109 0)"/>
       <use xlink:href="#DejaVuSans-70" transform="translate(143.261719 0)"/>
       <use xlink:href="#DejaVuSans-65" transform="translate(206.738281 0)"/>
       <use xlink:href="#DejaVuSans-63" transform="translate(268.261719 0)"/>
       <use xlink:href="#DejaVuSans-74" transform="translate(323.242188 0)"/>
       <use xlink:href="#DejaVuSans-61" transform="translate(362.451172 0)"/>
       <use xlink:href="#DejaVuSans-62" transform="translate(423.730469 0)"/>
       <use xlink:href="#DejaVuSans-6c" transform="translate(487.207031 0)"/>
       <use xlink:href="#DejaVuSans-65" transform="translate(514.990234 0)"/>
       <use xlink:href="#DejaVuSans-20" transform="translate(576.513672 0)"/>
       <use xlink:href="#DejaVuSans-28" transform="translate(608.300781 0)"/>
       <use xlink:href="#DejaVuSans-67" transform="translate(647.314453 0)"/>
       <use xlink:href="#DejaVuSans-35" transform="translate(710.791016 0)"/>
       <use xlink:href="#DejaVuSans-29" transform="translate(774.414062 0)"/>
      </g>
     </g>
    </g>
   </g>
   <g id="patch_6">
    <path d="M 95.04 156.672 
L 95.04 29.376 
" style="fill: none; stroke: #000000; stroke-width: 0.8; stroke-linejoin: miter; stroke-linecap: square"/>
   </g>
   <g id="patch_7">
    <path d="M 324.72 156.672 
L 324.72 29.376 
" style="fill: none; stroke: #000000; stroke-width: 0.8; stroke-linejoin: miter; stroke-linecap: square"/>
   </g>
   <g id="patch_8">
    <path d="M 95.04 156.672 
L 324.72 156.672 
" style="fill: none; stroke: #000000; stroke-width: 0.8; stroke-linejoin: miter; stroke-linecap: square"/>
   </g>
   <g id="patch_9">
    <path d="M 95.04 29.376 
L 324.72 29.376 
" style="fill: none; stroke: #000000; stroke-width: 0.8; stroke-linejoin: miter; stroke-linecap: square"/>
   </g>
   <g id="text_12">
    <!--  501,561 -->
    <g transform="translate(271.716923 53.625692) scale(0.07 -0.07)">
     <defs>
      <path id="DejaVuSans-2c" d="M 750 794 
L 1409 794 
L 1409 256 
L 897 -744 
L 494 -744 
L 750 256 
L 750 794 
z
" transform="scale(0.015625)"/>
     </defs>
     <use xlink:href="#DejaVuSans-20"/>
     <use xlink:href="#DejaVuSans-35" transform="translate(31.787109 0)"/>
     <use xlink:href="#DejaVuSans-30" transform="translate(95.410156 0)"/>
     <use xlink:href="#DejaVuSans-31" transform="translate(159.033203 0)"/>
     <use xlink:href="#DejaVuSans-2c" transform="translate(222.65625 0)"/>
     <use xlink:href="#DejaVuSans-35" transform="translate(254.443359 0)"/>
     <use xlink:href="#DejaVuSans-36" transform="translate(318.066406 0)"/>
     <use xlink:href="#DejaVuSans-31" transform="translate(381.689453 0)"/>
    </g>
   </g>
   <g id="text_13">
    <!--  369,381 -->
    <g transform="translate(225.155975 94.955563) scale(0.07 -0.07)">
     <defs>
      <path id="DejaVuSans-39" d="M 703 97 
L 703 672 
Q 941 559 1184 500 
Q 1428 441 1663 441 
Q 2288 441 2617 861 
Q 2947 1281 2994 2138 
Q 2813 1869 2534 1725 
Q 2256 1581 1919 1581 
Q 1219 1581 811 2004 
Q 403 2428 403 3163 
Q 403 3881 828 4315 
Q 1253 4750 1959 4750 
Q 2769 4750 3195 4129 
Q 3622 3509 3622 2328 
Q 3622 1225 3098 567 
Q 2575 -91 1691 -91 
Q 1453 -91 1209 -44 
Q 966 3 703 97 
z
M 1959 2075 
Q 2384 2075 2632 2365 
Q 2881 2656 2881 3163 
Q 2881 3666 2632 3958 
Q 2384 4250 1959 4250 
Q 1534 4250 1286 3958 
Q 1038 3666 1038 3163 
Q 1038 2656 1286 2365 
Q 1534 2075 1959 2075 
z
" transform="scale(0.015625)"/>
      <path id="DejaVuSans-38" d="M 2034 2216 
Q 1584 2216 1326 1975 
Q 1069 1734 1069 1313 
Q 1069 891 1326 650 
Q 1584 409 2034 409 
Q 2484 409 2743 651 
Q 3003 894 3003 1313 
Q 3003 1734 2745 1975 
Q 2488 2216 2034 2216 
z
M 1403 2484 
Q 997 2584 770 2862 
Q 544 3141 544 3541 
Q 544 4100 942 4425 
Q 1341 4750 2034 4750 
Q 2731 4750 3128 4425 
Q 3525 4100 3525 3541 
Q 3525 3141 3298 2862 
Q 3072 2584 2669 2484 
Q 3125 2378 3379 2068 
Q 3634 1759 3634 1313 
Q 3634 634 3220 271 
Q 2806 -91 2034 -91 
Q 1263 -91 848 271 
Q 434 634 434 1313 
Q 434 1759 690 2068 
Q 947 2378 1403 2484 
z
M 1172 3481 
Q 1172 3119 1398 2916 
Q 1625 2713 2034 2713 
Q 2441 2713 2670 2916 
Q 2900 3119 2900 3481 
Q 2900 3844 2670 4047 
Q 2441 4250 2034 4250 
Q 1625 4250 1398 4047 
Q 1172 3844 1172 3481 
z
" transform="scale(0.015625)"/>
     </defs>
     <use xlink:href="#DejaVuSans-20"/>
     <use xlink:href="#DejaVuSans-33" transform="translate(31.787109 0)"/>
     <use xlink:href="#DejaVuSans-36" transform="translate(95.410156 0)"/>
     <use xlink:href="#DejaVuSans-39" transform="translate(159.033203 0)"/>
     <use xlink:href="#DejaVuSans-2c" transform="translate(222.65625 0)"/>
     <use xlink:href="#DejaVuSans-33" transform="translate(254.443359 0)"/>
     <use xlink:href="#DejaVuSans-38" transform="translate(318.066406 0)"/>
     <use xlink:href="#DejaVuSans-31" transform="translate(381.689453 0)"/>
    </g>
   </g>
   <g id="text_14">
    <!--  354,102 -->
    <g transform="translate(219.773884 136.285433) scale(0.07 -0.07)">
     <use xlink:href="#DejaVuSans-20"/>
     <use xlink:href="#DejaVuSans-33" transform="translate(31.787109 0)"/>
     <use xlink:href="#DejaVuSans-35" transform="translate(95.410156 0)"/>
     <use xlink:href="#DejaVuSans-34" transform="translate(159.033203 0)"/>
     <use xlink:href="#DejaVuSans-2c" transform="translate(222.65625 0)"/>
     <use xlink:href="#DejaVuSans-31" transform="translate(254.443359 0)"/>
     <use xlink:href="#DejaVuSans-30" transform="translate(318.066406 0)"/>
     <use xlink:href="#DejaVuSans-32" transform="translate(381.689453 0)"/>
    </g>
   </g>
   <g id="text_15">
    <!-- ineligible 132,180: &lt; 250 aa 108,439; non-standard residue 23,741 -->
    <g style="fill: #6b7b8a" transform="translate(99.6336 198.67968) scale(0.065 -0.065)">
     <defs>
      <path id="DejaVuSans-3a" d="M 750 794 
L 1409 794 
L 1409 0 
L 750 0 
L 750 794 
z
M 750 3309 
L 1409 3309 
L 1409 2516 
L 750 2516 
L 750 3309 
z
" transform="scale(0.015625)"/>
      <path id="DejaVuSans-3c" d="M 4684 3150 
L 1459 2003 
L 4684 863 
L 4684 294 
L 678 1747 
L 678 2266 
L 4684 3719 
L 4684 3150 
z
" transform="scale(0.015625)"/>
      <path id="DejaVuSans-3b" d="M 750 3309 
L 1409 3309 
L 1409 2516 
L 750 2516 
L 750 3309 
z
M 750 794 
L 1409 794 
L 1409 256 
L 897 -744 
L 494 -744 
L 750 256 
L 750 794 
z
" transform="scale(0.015625)"/>
      <path id="DejaVuSans-2d" d="M 313 2009 
L 1997 2009 
L 1997 1497 
L 313 1497 
L 313 2009 
z
" transform="scale(0.015625)"/>
      <path id="DejaVuSans-72" d="M 2631 2963 
Q 2534 3019 2420 3045 
Q 2306 3072 2169 3072 
Q 1681 3072 1420 2755 
Q 1159 2438 1159 1844 
L 1159 0 
L 581 0 
L 581 3500 
L 1159 3500 
L 1159 2956 
Q 1341 3275 1631 3429 
Q 1922 3584 2338 3584 
Q 2397 3584 2469 3576 
Q 2541 3569 2628 3553 
L 2631 2963 
z
" transform="scale(0.015625)"/>
      <path id="DejaVuSans-37" d="M 525 4666 
L 3525 4666 
L 3525 4397 
L 1831 0 
L 1172 0 
L 2766 4134 
L 525 4134 
L 525 4666 
z
" transform="scale(0.015625)"/>
     </defs>
     <use xlink:href="#DejaVuSans-69"/>
     <use xlink:href="#DejaVuSans-6e" transform="translate(27.783203 0)"/>
     <use xlink:href="#DejaVuSans-65" transform="translate(91.162109 0)"/>
     <use xlink:href="#DejaVuSans-6c" transform="translate(152.685547 0)"/>
     <use xlink:href="#DejaVuSans-69" transform="translate(180.46875 0)"/>
     <use xlink:href="#DejaVuSans-67" transform="translate(208.251953 0)"/>
     <use xlink:href="#DejaVuSans-69" transform="translate(271.728516 0)"/>
     <use xlink:href="#DejaVuSans-62" transform="translate(299.511719 0)"/>
     <use xlink:href="#DejaVuSans-6c" transform="translate(362.988281 0)"/>
     <use xlink:href="#DejaVuSans-65" transform="translate(390.771484 0)"/>
     <use xlink:href="#DejaVuSans-20" transform="translate(452.294922 0)"/>
     <use xlink:href="#DejaVuSans-31" transform="translate(484.082031 0)"/>
     <use xlink:href="#DejaVuSans-33" transform="translate(547.705078 0)"/>
     <use xlink:href="#DejaVuSans-32" transform="translate(611.328125 0)"/>
     <use xlink:href="#DejaVuSans-2c" transform="translate(674.951172 0)"/>
     <use xlink:href="#DejaVuSans-31" transform="translate(706.738281 0)"/>
     <use xlink:href="#DejaVuSans-38" transform="translate(770.361328 0)"/>
     <use xlink:href="#DejaVuSans-30" transform="translate(833.984375 0)"/>
     <use xlink:href="#DejaVuSans-3a" transform="translate(897.607422 0)"/>
     <use xlink:href="#DejaVuSans-20" transform="translate(931.298828 0)"/>
     <use xlink:href="#DejaVuSans-3c" transform="translate(963.085938 0)"/>
     <use xlink:href="#DejaVuSans-20" transform="translate(1046.875 0)"/>
     <use xlink:href="#DejaVuSans-32" transform="translate(1078.662109 0)"/>
     <use xlink:href="#DejaVuSans-35" transform="translate(1142.285156 0)"/>
     <use xlink:href="#DejaVuSans-30" transform="translate(1205.908203 0)"/>
     <use xlink:href="#DejaVuSans-20" transform="translate(1269.53125 0)"/>
     <use xlink:href="#DejaVuSans-61" transform="translate(1301.318359 0)"/>
     <use xlink:href="#DejaVuSans-61" transform="translate(1362.597656 0)"/>
     <use xlink:href="#DejaVuSans-20" transform="translate(1423.876953 0)"/>
     <use xlink:href="#DejaVuSans-31" transform="translate(1455.664062 0)"/>
     <use xlink:href="#DejaVuSans-30" transform="translate(1519.287109 0)"/>
     <use xlink:href="#DejaVuSans-38" transform="translate(1582.910156 0)"/>
     <use xlink:href="#DejaVuSans-2c" transform="translate(1646.533203 0)"/>
     <use xlink:href="#DejaVuSans-34" transform="translate(1678.320312 0)"/>
     <use xlink:href="#DejaVuSans-33" transform="translate(1741.943359 0)"/>
     <use xlink:href="#DejaVuSans-39" transform="translate(1805.566406 0)"/>
     <use xlink:href="#DejaVuSans-3b" transform="translate(1869.189453 0)"/>
     <use xlink:href="#DejaVuSans-20" transform="translate(1902.880859 0)"/>
     <use xlink:href="#DejaVuSans-6e" transform="translate(1934.667969 0)"/>
     <use xlink:href="#DejaVuSans-6f" transform="translate(1998.046875 0)"/>
     <use xlink:href="#DejaVuSans-6e" transform="translate(2059.228516 0)"/>
     <use xlink:href="#DejaVuSans-2d" transform="translate(2122.607422 0)"/>
     <use xlink:href="#DejaVuSans-73" transform="translate(2158.691406 0)"/>
     <use xlink:href="#DejaVuSans-74" transform="translate(2210.791016 0)"/>
     <use xlink:href="#DejaVuSans-61" transform="translate(2250 0)"/>
     <use xlink:href="#DejaVuSans-6e" transform="translate(2311.279297 0)"/>
     <use xlink:href="#DejaVuSans-64" transform="translate(2374.658203 0)"/>
     <use xlink:href="#DejaVuSans-61" transform="translate(2438.134766 0)"/>
     <use xlink:href="#DejaVuSans-72" transform="translate(2499.414062 0)"/>
     <use xlink:href="#DejaVuSans-64" transform="translate(2538.777344 0)"/>
     <use xlink:href="#DejaVuSans-20" transform="translate(2602.253906 0)"/>
     <use xlink:href="#DejaVuSans-72" transform="translate(2634.041016 0)"/>
     <use xlink:href="#DejaVuSans-65" transform="translate(2672.904297 0)"/>
     <use xlink:href="#DejaVuSans-73" transform="translate(2734.427734 0)"/>
     <use xlink:href="#DejaVuSans-69" transform="translate(2786.527344 0)"/>
     <use xlink:href="#DejaVuSans-64" transform="translate(2814.310547 0)"/>
     <use xlink:href="#DejaVuSans-75" transform="translate(2877.787109 0)"/>
     <use xlink:href="#DejaVuSans-65" transform="translate(2941.166016 0)"/>
     <use xlink:href="#DejaVuSans-20" transform="translate(3002.689453 0)"/>
     <use xlink:href="#DejaVuSans-32" transform="translate(3034.476562 0)"/>
     <use xlink:href="#DejaVuSans-33" transform="translate(3098.099609 0)"/>
     <use xlink:href="#DejaVuSans-2c" transform="translate(3161.722656 0)"/>
     <use xlink:href="#DejaVuSans-37" transform="translate(3193.509766 0)"/>
     <use xlink:href="#DejaVuSans-34" transform="translate(3257.132812 0)"/>
     <use xlink:href="#DejaVuSans-31" transform="translate(3320.755859 0)"/>
    </g>
   </g>
   <g id="text_16">
    <!-- a  denominators -->
    <g transform="translate(95.04 23.376) scale(0.085 -0.085)">
     <defs>
      <path id="DejaVuSans-6d" d="M 3328 2828 
Q 3544 3216 3844 3400 
Q 4144 3584 4550 3584 
Q 5097 3584 5394 3201 
Q 5691 2819 5691 2113 
L 5691 0 
L 5113 0 
L 5113 2094 
Q 5113 2597 4934 2840 
Q 4756 3084 4391 3084 
Q 3944 3084 3684 2787 
Q 3425 2491 3425 1978 
L 3425 0 
L 2847 0 
L 2847 2094 
Q 2847 2600 2669 2842 
Q 2491 3084 2119 3084 
Q 1678 3084 1418 2786 
Q 1159 2488 1159 1978 
L 1159 0 
L 581 0 
L 581 3500 
L 1159 3500 
L 1159 2956 
Q 1356 3278 1631 3431 
Q 1906 3584 2284 3584 
Q 2666 3584 2933 3390 
Q 3200 3197 3328 2828 
z
" transform="scale(0.015625)"/>
     </defs>
     <use xlink:href="#DejaVuSans-61"/>
     <use xlink:href="#DejaVuSans-20" transform="translate(61.279297 0)"/>
     <use xlink:href="#DejaVuSans-20" transform="translate(93.066406 0)"/>
     <use xlink:href="#DejaVuSans-64" transform="translate(124.853516 0)"/>
     <use xlink:href="#DejaVuSans-65" transform="translate(188.330078 0)"/>
     <use xlink:href="#DejaVuSans-6e" transform="translate(249.853516 0)"/>
     <use xlink:href="#DejaVuSans-6f" transform="translate(313.232422 0)"/>
     <use xlink:href="#DejaVuSans-6d" transform="translate(374.414062 0)"/>
     <use xlink:href="#DejaVuSans-69" transform="translate(471.826172 0)"/>
     <use xlink:href="#DejaVuSans-6e" transform="translate(499.609375 0)"/>
     <use xlink:href="#DejaVuSans-61" transform="translate(562.988281 0)"/>
     <use xlink:href="#DejaVuSans-74" transform="translate(624.267578 0)"/>
     <use xlink:href="#DejaVuSans-6f" transform="translate(663.476562 0)"/>
     <use xlink:href="#DejaVuSans-72" transform="translate(724.658203 0)"/>
     <use xlink:href="#DejaVuSans-73" transform="translate(765.771484 0)"/>
    </g>
   </g>
  </g>
  <g id="axes_2">
   <g id="patch_10">
    <path d="M 382.14 156.672 
L 554.4 156.672 
L 554.4 29.376 
L 382.14 29.376 
z
" style="fill: #ffffff"/>
   </g>
   <g id="patch_11">
    <path d="M 382.14 150.885818 
L 541.320811 150.885818 
L 541.320811 35.162182 
L 382.14 35.162182 
z
" clip-path="url(#p49daffdc1c)" style="fill: #2f7d4f"/>
   </g>
   <g id="patch_12">
    <path d="M 541.320811 150.885818 
L 547.274673 150.885818 
L 547.274673 35.162182 
L 541.320811 35.162182 
z
" clip-path="url(#p49daffdc1c)" style="fill: #d08a1c"/>
   </g>
   <g id="patch_13">
    <path d="M 547.274673 150.885818 
L 550.284947 150.885818 
L 550.284947 35.162182 
L 547.274673 35.162182 
z
" clip-path="url(#p49daffdc1c)" style="fill: #7fa9c9"/>
   </g>
   <g id="patch_14">
    <path d="M 550.284947 150.885818 
L 554.4 150.885818 
L 554.4 35.162182 
L 550.284947 35.162182 
z
" clip-path="url(#p49daffdc1c)" style="fill: #9aa5b1"/>
   </g>
   <g id="matplotlib.axis_3">
    <g id="xtick_8">
     <g id="line2d_11">
      <g>
       <use xlink:href="#mb5bf6e1ebc" x="382.14" y="156.672" style="stroke: #000000; stroke-width: 0.8"/>
      </g>
     </g>
     <g id="text_17">
      <!-- 0.0 -->
      <g transform="translate(374.983594 170.510594) scale(0.09 -0.09)">
       <defs>
        <path id="DejaVuSans-2e" d="M 684 794 
L 1344 794 
L 1344 0 
L 684 0 
L 684 794 
z
" transform="scale(0.015625)"/>
       </defs>
       <use xlink:href="#DejaVuSans-30"/>
       <use xlink:href="#DejaVuSans-2e" transform="translate(63.623047 0)"/>
       <use xlink:href="#DejaVuSans-30" transform="translate(95.410156 0)"/>
      </g>
     </g>
    </g>
    <g id="xtick_9">
     <g id="line2d_12">
      <g>
       <use xlink:href="#mb5bf6e1ebc" x="416.592" y="156.672" style="stroke: #000000; stroke-width: 0.8"/>
      </g>
     </g>
     <g id="text_18">
      <!-- 0.2 -->
      <g transform="translate(409.435594 170.510594) scale(0.09 -0.09)">
       <use xlink:href="#DejaVuSans-30"/>
       <use xlink:href="#DejaVuSans-2e" transform="translate(63.623047 0)"/>
       <use xlink:href="#DejaVuSans-32" transform="translate(95.410156 0)"/>
      </g>
     </g>
    </g>
    <g id="xtick_10">
     <g id="line2d_13">
      <g>
       <use xlink:href="#mb5bf6e1ebc" x="451.044" y="156.672" style="stroke: #000000; stroke-width: 0.8"/>
      </g>
     </g>
     <g id="text_19">
      <!-- 0.4 -->
      <g transform="translate(443.887594 170.510594) scale(0.09 -0.09)">
       <use xlink:href="#DejaVuSans-30"/>
       <use xlink:href="#DejaVuSans-2e" transform="translate(63.623047 0)"/>
       <use xlink:href="#DejaVuSans-34" transform="translate(95.410156 0)"/>
      </g>
     </g>
    </g>
    <g id="xtick_11">
     <g id="line2d_14">
      <g>
       <use xlink:href="#mb5bf6e1ebc" x="485.496" y="156.672" style="stroke: #000000; stroke-width: 0.8"/>
      </g>
     </g>
     <g id="text_20">
      <!-- 0.6 -->
      <g transform="translate(478.339594 170.510594) scale(0.09 -0.09)">
       <use xlink:href="#DejaVuSans-30"/>
       <use xlink:href="#DejaVuSans-2e" transform="translate(63.623047 0)"/>
       <use xlink:href="#DejaVuSans-36" transform="translate(95.410156 0)"/>
      </g>
     </g>
    </g>
    <g id="xtick_12">
     <g id="line2d_15">
      <g>
       <use xlink:href="#mb5bf6e1ebc" x="519.948" y="156.672" style="stroke: #000000; stroke-width: 0.8"/>
      </g>
     </g>
     <g id="text_21">
      <!-- 0.8 -->
      <g transform="translate(512.791594 170.510594) scale(0.09 -0.09)">
       <use xlink:href="#DejaVuSans-30"/>
       <use xlink:href="#DejaVuSans-2e" transform="translate(63.623047 0)"/>
       <use xlink:href="#DejaVuSans-38" transform="translate(95.410156 0)"/>
      </g>
     </g>
    </g>
    <g id="xtick_13">
     <g id="line2d_16">
      <g>
       <use xlink:href="#mb5bf6e1ebc" x="554.4" y="156.672" style="stroke: #000000; stroke-width: 0.8"/>
      </g>
     </g>
     <g id="text_22">
      <!-- 1.0 -->
      <g transform="translate(547.243594 170.510594) scale(0.09 -0.09)">
       <use xlink:href="#DejaVuSans-31"/>
       <use xlink:href="#DejaVuSans-2e" transform="translate(63.623047 0)"/>
       <use xlink:href="#DejaVuSans-30" transform="translate(95.410156 0)"/>
      </g>
     </g>
    </g>
   </g>
   <g id="matplotlib.axis_4"/>
   <g id="patch_15">
    <path d="M 382.14 156.672 
L 382.14 29.376 
" style="fill: none; stroke: #000000; stroke-width: 0.8; stroke-linejoin: miter; stroke-linecap: square"/>
   </g>
   <g id="patch_16">
    <path d="M 554.4 156.672 
L 554.4 29.376 
" style="fill: none; stroke: #000000; stroke-width: 0.8; stroke-linejoin: miter; stroke-linecap: square"/>
   </g>
   <g id="patch_17">
    <path d="M 382.14 156.672 
L 554.4 156.672 
" style="fill: none; stroke: #000000; stroke-width: 0.8; stroke-linejoin: miter; stroke-linecap: square"/>
   </g>
   <g id="patch_18">
    <path d="M 382.14 29.376 
L 554.4 29.376 
" style="fill: none; stroke: #000000; stroke-width: 0.8; stroke-linejoin: miter; stroke-linecap: square"/>
   </g>
   <g id="text_23">
    <!-- b  inspectability (of eligible) -->
    <g transform="translate(382.14 23.376) scale(0.085 -0.085)">
     <defs>
      <path id="DejaVuSans-79" d="M 2059 -325 
Q 1816 -950 1584 -1140 
Q 1353 -1331 966 -1331 
L 506 -1331 
L 506 -850 
L 844 -850 
Q 1081 -850 1212 -737 
Q 1344 -625 1503 -206 
L 1606 56 
L 191 3500 
L 800 3500 
L 1894 763 
L 2988 3500 
L 3597 3500 
L 2059 -325 
z
" transform="scale(0.015625)"/>
      <path id="DejaVuSans-66" d="M 2375 4863 
L 2375 4384 
L 1825 4384 
Q 1516 4384 1395 4259 
Q 1275 4134 1275 3809 
L 1275 3500 
L 2222 3500 
L 2222 3053 
L 1275 3053 
L 1275 0 
L 697 0 
L 697 3053 
L 147 3053 
L 147 3500 
L 697 3500 
L 697 3744 
Q 697 4328 969 4595 
Q 1241 4863 1831 4863 
L 2375 4863 
z
" transform="scale(0.015625)"/>
     </defs>
     <use xlink:href="#DejaVuSans-62"/>
     <use xlink:href="#DejaVuSans-20" transform="translate(63.476562 0)"/>
     <use xlink:href="#DejaVuSans-20" transform="translate(95.263672 0)"/>
     <use xlink:href="#DejaVuSans-69" transform="translate(127.050781 0)"/>
     <use xlink:href="#DejaVuSans-6e" transform="translate(154.833984 0)"/>
     <use xlink:href="#DejaVuSans-73" transform="translate(218.212891 0)"/>
     <use xlink:href="#DejaVuSans-70" transform="translate(270.3125 0)"/>
     <use xlink:href="#DejaVuSans-65" transform="translate(333.789062 0)"/>
     <use xlink:href="#DejaVuSans-63" transform="translate(395.3125 0)"/>
     <use xlink:href="#DejaVuSans-74" transform="translate(450.292969 0)"/>
     <use xlink:href="#DejaVuSans-61" transform="translate(489.501953 0)"/>
     <use xlink:href="#DejaVuSans-62" transform="translate(550.78125 0)"/>
     <use xlink:href="#DejaVuSans-69" transform="translate(614.257812 0)"/>
     <use xlink:href="#DejaVuSans-6c" transform="translate(642.041016 0)"/>
     <use xlink:href="#DejaVuSans-69" transform="translate(669.824219 0)"/>
     <use xlink:href="#DejaVuSans-74" transform="translate(697.607422 0)"/>
     <use xlink:href="#DejaVuSans-79" transform="translate(736.816406 0)"/>
     <use xlink:href="#DejaVuSans-20" transform="translate(795.996094 0)"/>
     <use xlink:href="#DejaVuSans-28" transform="translate(827.783203 0)"/>
     <use xlink:href="#DejaVuSans-6f" transform="translate(866.796875 0)"/>
     <use xlink:href="#DejaVuSans-66" transform="translate(927.978516 0)"/>
     <use xlink:href="#DejaVuSans-20" transform="translate(963.183594 0)"/>
     <use xlink:href="#DejaVuSans-65" transform="translate(994.970703 0)"/>
     <use xlink:href="#DejaVuSans-6c" transform="translate(1056.494141 0)"/>
     <use xlink:href="#DejaVuSans-69" transform="translate(1084.277344 0)"/>
     <use xlink:href="#DejaVuSans-67" transform="translate(1112.060547 0)"/>
     <use xlink:href="#DejaVuSans-69" transform="translate(1175.537109 0)"/>
     <use xlink:href="#DejaVuSans-62" transform="translate(1203.320312 0)"/>
     <use xlink:href="#DejaVuSans-6c" transform="translate(1266.796875 0)"/>
     <use xlink:href="#DejaVuSans-65" transform="translate(1294.580078 0)"/>
     <use xlink:href="#DejaVuSans-29" transform="translate(1356.103516 0)"/>
    </g>
   </g>
   <g id="legend_1">
    <g id="patch_19">
     <path d="M 406.254922 182.736504 
L 419.254922 182.736504 
L 419.254922 178.186504 
L 406.254922 178.186504 
z
" style="fill: #2f7d4f"/>
    </g>
    <g id="text_24">
     <!-- MAPPABLE 0.924 -->
     <g transform="translate(424.454922 182.736504) scale(0.065 -0.065)">
      <defs>
       <path id="DejaVuSans-4d" d="M 628 4666 
L 1569 4666 
L 2759 1491 
L 3956 4666 
L 4897 4666 
L 4897 0 
L 4281 0 
L 4281 4097 
L 3078 897 
L 2444 897 
L 1241 4097 
L 1241 0 
L 628 0 
L 628 4666 
z
" transform="scale(0.015625)"/>
       <path id="DejaVuSans-41" d="M 2188 4044 
L 1331 1722 
L 3047 1722 
L 2188 4044 
z
M 1831 4666 
L 2547 4666 
L 4325 0 
L 3669 0 
L 3244 1197 
L 1141 1197 
L 716 0 
L 50 0 
L 1831 4666 
z
" transform="scale(0.015625)"/>
       <path id="DejaVuSans-50" d="M 1259 4147 
L 1259 2394 
L 2053 2394 
Q 2494 2394 2734 2622 
Q 2975 2850 2975 3272 
Q 2975 3691 2734 3919 
Q 2494 4147 2053 4147 
L 1259 4147 
z
M 628 4666 
L 2053 4666 
Q 2838 4666 3239 4311 
Q 3641 3956 3641 3272 
Q 3641 2581 3239 2228 
Q 2838 1875 2053 1875 
L 1259 1875 
L 1259 0 
L 628 0 
L 628 4666 
z
" transform="scale(0.015625)"/>
       <path id="DejaVuSans-42" d="M 1259 2228 
L 1259 519 
L 2272 519 
Q 2781 519 3026 730 
Q 3272 941 3272 1375 
Q 3272 1813 3026 2020 
Q 2781 2228 2272 2228 
L 1259 2228 
z
M 1259 4147 
L 1259 2741 
L 2194 2741 
Q 2656 2741 2882 2914 
Q 3109 3088 3109 3444 
Q 3109 3797 2882 3972 
Q 2656 4147 2194 4147 
L 1259 4147 
z
M 628 4666 
L 2241 4666 
Q 2963 4666 3353 4366 
Q 3744 4066 3744 3513 
Q 3744 3084 3544 2831 
Q 3344 2578 2956 2516 
Q 3422 2416 3680 2098 
Q 3938 1781 3938 1306 
Q 3938 681 3513 340 
Q 3088 0 2303 0 
L 628 0 
L 628 4666 
z
" transform="scale(0.015625)"/>
       <path id="DejaVuSans-4c" d="M 628 4666 
L 1259 4666 
L 1259 531 
L 3531 531 
L 3531 0 
L 628 0 
L 628 4666 
z
" transform="scale(0.015625)"/>
       <path id="DejaVuSans-45" d="M 628 4666 
L 3578 4666 
L 3578 4134 
L 1259 4134 
L 1259 2753 
L 3481 2753 
L 3481 2222 
L 1259 2222 
L 1259 531 
L 3634 531 
L 3634 0 
L 628 0 
L 628 4666 
z
" transform="scale(0.015625)"/>
      </defs>
      <use xlink:href="#DejaVuSans-4d"/>
      <use xlink:href="#DejaVuSans-41" transform="translate(86.279297 0)"/>
      <use xlink:href="#DejaVuSans-50" transform="translate(154.6875 0)"/>
      <use xlink:href="#DejaVuSans-50" transform="translate(214.990234 0)"/>
      <use xlink:href="#DejaVuSans-41" transform="translate(268.917969 0)"/>
      <use xlink:href="#DejaVuSans-42" transform="translate(337.326172 0)"/>
      <use xlink:href="#DejaVuSans-4c" transform="translate(405.929688 0)"/>
      <use xlink:href="#DejaVuSans-45" transform="translate(461.642578 0)"/>
      <use xlink:href="#DejaVuSans-20" transform="translate(524.826172 0)"/>
      <use xlink:href="#DejaVuSans-30" transform="translate(556.613281 0)"/>
      <use xlink:href="#DejaVuSans-2e" transform="translate(620.236328 0)"/>
      <use xlink:href="#DejaVuSans-39" transform="translate(652.023438 0)"/>
      <use xlink:href="#DejaVuSans-32" transform="translate(715.646484 0)"/>
      <use xlink:href="#DejaVuSans-34" transform="translate(779.269531 0)"/>
     </g>
    </g>
    <g id="patch_20">
     <path d="M 406.254922 192.277286 
L 419.254922 192.277286 
L 419.254922 187.727286 
L 406.254922 187.727286 
z
" style="fill: #d08a1c"/>
    </g>
    <g id="text_25">
     <!-- PARTIAL_MAPPING 0.035 -->
     <g transform="translate(424.454922 192.277286) scale(0.065 -0.065)">
      <defs>
       <path id="DejaVuSans-49" d="M 628 4666 
L 1259 4666 
L 1259 0 
L 628 0 
L 628 4666 
z
" transform="scale(0.015625)"/>
       <path id="DejaVuSans-5f" d="M 3263 -1063 
L 3263 -1509 
L -63 -1509 
L -63 -1063 
L 3263 -1063 
z
" transform="scale(0.015625)"/>
       <path id="DejaVuSans-4e" d="M 628 4666 
L 1478 4666 
L 3547 763 
L 3547 4666 
L 4159 4666 
L 4159 0 
L 3309 0 
L 1241 3903 
L 1241 0 
L 628 0 
L 628 4666 
z
" transform="scale(0.015625)"/>
       <path id="DejaVuSans-47" d="M 3809 666 
L 3809 1919 
L 2778 1919 
L 2778 2438 
L 4434 2438 
L 4434 434 
Q 4069 175 3628 42 
Q 3188 -91 2688 -91 
Q 1594 -91 976 548 
Q 359 1188 359 2328 
Q 359 3472 976 4111 
Q 1594 4750 2688 4750 
Q 3144 4750 3555 4637 
Q 3966 4525 4313 4306 
L 4313 3634 
Q 3963 3931 3569 4081 
Q 3175 4231 2741 4231 
Q 1884 4231 1454 3753 
Q 1025 3275 1025 2328 
Q 1025 1384 1454 906 
Q 1884 428 2741 428 
Q 3075 428 3337 486 
Q 3600 544 3809 666 
z
" transform="scale(0.015625)"/>
      </defs>
      <use xlink:href="#DejaVuSans-50"/>
      <use xlink:href="#DejaVuSans-41" transform="translate(53.927734 0)"/>
      <use xlink:href="#DejaVuSans-52" transform="translate(122.335938 0)"/>
      <use xlink:href="#DejaVuSans-54" transform="translate(184.568359 0)"/>
      <use xlink:href="#DejaVuSans-49" transform="translate(245.652344 0)"/>
      <use xlink:href="#DejaVuSans-41" transform="translate(275.144531 0)"/>
      <use xlink:href="#DejaVuSans-4c" transform="translate(343.552734 0)"/>
      <use xlink:href="#DejaVuSans-5f" transform="translate(399.265625 0)"/>
      <use xlink:href="#DejaVuSans-4d" transform="translate(449.265625 0)"/>
      <use xlink:href="#DejaVuSans-41" transform="translate(535.544922 0)"/>
      <use xlink:href="#DejaVuSans-50" transform="translate(603.953125 0)"/>
      <use xlink:href="#DejaVuSans-50" transform="translate(664.255859 0)"/>
      <use xlink:href="#DejaVuSans-49" transform="translate(724.558594 0)"/>
      <use xlink:href="#DejaVuSans-4e" transform="translate(754.050781 0)"/>
      <use xlink:href="#DejaVuSans-47" transform="translate(828.855469 0)"/>
      <use xlink:href="#DejaVuSans-20" transform="translate(906.345703 0)"/>
      <use xlink:href="#DejaVuSans-30" transform="translate(938.132812 0)"/>
      <use xlink:href="#DejaVuSans-2e" transform="translate(1001.755859 0)"/>
      <use xlink:href="#DejaVuSans-30" transform="translate(1033.542969 0)"/>
      <use xlink:href="#DejaVuSans-33" transform="translate(1097.166016 0)"/>
      <use xlink:href="#DejaVuSans-35" transform="translate(1160.789062 0)"/>
     </g>
    </g>
    <g id="patch_21">
     <path d="M 406.254922 201.998848 
L 419.254922 201.998848 
L 419.254922 197.448848 
L 406.254922 197.448848 
z
" style="fill: #7fa9c9"/>
    </g>
    <g id="text_26">
     <!-- AMBIGUOUS_MAPPING 0.017 -->
     <g transform="translate(424.454922 201.998848) scale(0.065 -0.065)">
      <defs>
       <path id="DejaVuSans-55" d="M 556 4666 
L 1191 4666 
L 1191 1831 
Q 1191 1081 1462 751 
Q 1734 422 2344 422 
Q 2950 422 3222 751 
Q 3494 1081 3494 1831 
L 3494 4666 
L 4128 4666 
L 4128 1753 
Q 4128 841 3676 375 
Q 3225 -91 2344 -91 
Q 1459 -91 1007 375 
Q 556 841 556 1753 
L 556 4666 
z
" transform="scale(0.015625)"/>
       <path id="DejaVuSans-4f" d="M 2522 4238 
Q 1834 4238 1429 3725 
Q 1025 3213 1025 2328 
Q 1025 1447 1429 934 
Q 1834 422 2522 422 
Q 3209 422 3611 934 
Q 4013 1447 4013 2328 
Q 4013 3213 3611 3725 
Q 3209 4238 2522 4238 
z
M 2522 4750 
Q 3503 4750 4090 4092 
Q 4678 3434 4678 2328 
Q 4678 1225 4090 567 
Q 3503 -91 2522 -91 
Q 1538 -91 948 565 
Q 359 1222 359 2328 
Q 359 3434 948 4092 
Q 1538 4750 2522 4750 
z
" transform="scale(0.015625)"/>
       <path id="DejaVuSans-53" d="M 3425 4513 
L 3425 3897 
Q 3066 4069 2747 4153 
Q 2428 4238 2131 4238 
Q 1616 4238 1336 4038 
Q 1056 3838 1056 3469 
Q 1056 3159 1242 3001 
Q 1428 2844 1947 2747 
L 2328 2669 
Q 3034 2534 3370 2195 
Q 3706 1856 3706 1288 
Q 3706 609 3251 259 
Q 2797 -91 1919 -91 
Q 1588 -91 1214 -16 
Q 841 59 441 206 
L 441 856 
Q 825 641 1194 531 
Q 1563 422 1919 422 
Q 2459 422 2753 634 
Q 3047 847 3047 1241 
Q 3047 1584 2836 1778 
Q 2625 1972 2144 2069 
L 1759 2144 
Q 1053 2284 737 2584 
Q 422 2884 422 3419 
Q 422 4038 858 4394 
Q 1294 4750 2059 4750 
Q 2388 4750 2728 4690 
Q 3069 4631 3425 4513 
z
" transform="scale(0.015625)"/>
      </defs>
      <use xlink:href="#DejaVuSans-41"/>
      <use xlink:href="#DejaVuSans-4d" transform="translate(68.408203 0)"/>
      <use xlink:href="#DejaVuSans-42" transform="translate(154.6875 0)"/>
      <use xlink:href="#DejaVuSans-49" transform="translate(223.291016 0)"/>
      <use xlink:href="#DejaVuSans-47" transform="translate(252.783203 0)"/>
      <use xlink:href="#DejaVuSans-55" transform="translate(330.273438 0)"/>
      <use xlink:href="#DejaVuSans-4f" transform="translate(403.466797 0)"/>
      <use xlink:href="#DejaVuSans-55" transform="translate(482.177734 0)"/>
      <use xlink:href="#DejaVuSans-53" transform="translate(555.371094 0)"/>
      <use xlink:href="#DejaVuSans-5f" transform="translate(618.847656 0)"/>
      <use xlink:href="#DejaVuSans-4d" transform="translate(668.847656 0)"/>
      <use xlink:href="#DejaVuSans-41" transform="translate(755.126953 0)"/>
      <use xlink:href="#DejaVuSans-50" transform="translate(823.535156 0)"/>
      <use xlink:href="#DejaVuSans-50" transform="translate(883.837891 0)"/>
      <use xlink:href="#DejaVuSans-49" transform="translate(944.140625 0)"/>
      <use xlink:href="#DejaVuSans-4e" transform="translate(973.632812 0)"/>
      <use xlink:href="#DejaVuSans-47" transform="translate(1048.4375 0)"/>
      <use xlink:href="#DejaVuSans-20" transform="translate(1125.927734 0)"/>
      <use xlink:href="#DejaVuSans-30" transform="translate(1157.714844 0)"/>
      <use xlink:href="#DejaVuSans-2e" transform="translate(1221.337891 0)"/>
      <use xlink:href="#DejaVuSans-30" transform="translate(1253.125 0)"/>
      <use xlink:href="#DejaVuSans-31" transform="translate(1316.748047 0)"/>
      <use xlink:href="#DejaVuSans-37" transform="translate(1380.371094 0)"/>
     </g>
    </g>
    <g id="patch_22">
     <path d="M 406.254922 211.720411 
L 419.254922 211.720411 
L 419.254922 207.170411 
L 406.254922 207.170411 
z
" style="fill: #9aa5b1"/>
    </g>
    <g id="text_27">
     <!-- NO_SUPPORTED_MAPPING 0.024 -->
     <g transform="translate(424.454922 211.720411) scale(0.065 -0.065)">
      <defs>
       <path id="DejaVuSans-44" d="M 1259 4147 
L 1259 519 
L 2022 519 
Q 2988 519 3436 956 
Q 3884 1394 3884 2338 
Q 3884 3275 3436 3711 
Q 2988 4147 2022 4147 
L 1259 4147 
z
M 628 4666 
L 1925 4666 
Q 3281 4666 3915 4102 
Q 4550 3538 4550 2338 
Q 4550 1131 3912 565 
Q 3275 0 1925 0 
L 628 0 
L 628 4666 
z
" transform="scale(0.015625)"/>
      </defs>
      <use xlink:href="#DejaVuSans-4e"/>
      <use xlink:href="#DejaVuSans-4f" transform="translate(74.804688 0)"/>
      <use xlink:href="#DejaVuSans-5f" transform="translate(153.515625 0)"/>
      <use xlink:href="#DejaVuSans-53" transform="translate(203.515625 0)"/>
      <use xlink:href="#DejaVuSans-55" transform="translate(266.992188 0)"/>
      <use xlink:href="#DejaVuSans-50" transform="translate(340.185547 0)"/>
      <use xlink:href="#DejaVuSans-50" transform="translate(400.488281 0)"/>
      <use xlink:href="#DejaVuSans-4f" transform="translate(460.791016 0)"/>
      <use xlink:href="#DejaVuSans-52" transform="translate(539.501953 0)"/>
      <use xlink:href="#DejaVuSans-54" transform="translate(601.734375 0)"/>
      <use xlink:href="#DejaVuSans-45" transform="translate(662.818359 0)"/>
      <use xlink:href="#DejaVuSans-44" transform="translate(726.001953 0)"/>
      <use xlink:href="#DejaVuSans-5f" transform="translate(803.003906 0)"/>
      <use xlink:href="#DejaVuSans-4d" transform="translate(853.003906 0)"/>
      <use xlink:href="#DejaVuSans-41" transform="translate(939.283203 0)"/>
      <use xlink:href="#DejaVuSans-50" transform="translate(1007.691406 0)"/>
      <use xlink:href="#DejaVuSans-50" transform="translate(1067.994141 0)"/>
      <use xlink:href="#DejaVuSans-49" transform="translate(1128.296875 0)"/>
      <use xlink:href="#DejaVuSans-4e" transform="translate(1157.789062 0)"/>
      <use xlink:href="#DejaVuSans-47" transform="translate(1232.59375 0)"/>
      <use xlink:href="#DejaVuSans-20" transform="translate(1310.083984 0)"/>
      <use xlink:href="#DejaVuSans-30" transform="translate(1341.871094 0)"/>
      <use xlink:href="#DejaVuSans-2e" transform="translate(1405.494141 0)"/>
      <use xlink:href="#DejaVuSans-30" transform="translate(1437.28125 0)"/>
      <use xlink:href="#DejaVuSans-32" transform="translate(1500.904297 0)"/>
      <use xlink:href="#DejaVuSans-34" transform="translate(1564.527344 0)"/>
     </g>
    </g>
   </g>
  </g>
  <g id="axes_3">
   <g id="patch_23">
    <path d="M 611.82 156.672 
L 784.08 156.672 
L 784.08 29.376 
L 611.82 29.376 
z
" style="fill: #ffffff"/>
   </g>
   <g id="patch_24">
    <path d="M 611.82 150.885818 
L 736.855624 150.885818 
L 736.855624 35.162182 
L 611.82 35.162182 
z
" clip-path="url(#pb961c70c4a)" style="fill: #2f7d4f"/>
   </g>
   <g id="patch_25">
    <path d="M 736.855624 150.885818 
L 745.205637 150.885818 
L 745.205637 35.162182 
L 736.855624 35.162182 
z
" clip-path="url(#pb961c70c4a)" style="fill: #d08a1c"/>
   </g>
   <g id="patch_26">
    <path d="M 745.205637 150.885818 
L 753.162935 150.885818 
L 753.162935 35.162182 
L 745.205637 35.162182 
z
" clip-path="url(#pb961c70c4a)" style="fill: #7fa9c9"/>
   </g>
   <g id="patch_27">
    <path d="M 753.162935 150.885818 
L 784.08 150.885818 
L 784.08 35.162182 
L 753.162935 35.162182 
z
" clip-path="url(#pb961c70c4a)" style="fill: #9aa5b1"/>
   </g>
   <g id="matplotlib.axis_5">
    <g id="xtick_14">
     <g id="line2d_17">
      <g>
       <use xlink:href="#mb5bf6e1ebc" x="611.82" y="156.672" style="stroke: #000000; stroke-width: 0.8"/>
      </g>
     </g>
     <g id="text_28">
      <!-- 0.0 -->
      <g transform="translate(604.663594 170.510594) scale(0.09 -0.09)">
       <use xlink:href="#DejaVuSans-30"/>
       <use xlink:href="#DejaVuSans-2e" transform="translate(63.623047 0)"/>
       <use xlink:href="#DejaVuSans-30" transform="translate(95.410156 0)"/>
      </g>
     </g>
    </g>
    <g id="xtick_15">
     <g id="line2d_18">
      <g>
       <use xlink:href="#mb5bf6e1ebc" x="646.272" y="156.672" style="stroke: #000000; stroke-width: 0.8"/>
      </g>
     </g>
     <g id="text_29">
      <!-- 0.2 -->
      <g transform="translate(639.115594 170.510594) scale(0.09 -0.09)">
       <use xlink:href="#DejaVuSans-30"/>
       <use xlink:href="#DejaVuSans-2e" transform="translate(63.623047 0)"/>
       <use xlink:href="#DejaVuSans-32" transform="translate(95.410156 0)"/>
      </g>
     </g>
    </g>
    <g id="xtick_16">
     <g id="line2d_19">
      <g>
       <use xlink:href="#mb5bf6e1ebc" x="680.724" y="156.672" style="stroke: #000000; stroke-width: 0.8"/>
      </g>
     </g>
     <g id="text_30">
      <!-- 0.4 -->
      <g transform="translate(673.567594 170.510594) scale(0.09 -0.09)">
       <use xlink:href="#DejaVuSans-30"/>
       <use xlink:href="#DejaVuSans-2e" transform="translate(63.623047 0)"/>
       <use xlink:href="#DejaVuSans-34" transform="translate(95.410156 0)"/>
      </g>
     </g>
    </g>
    <g id="xtick_17">
     <g id="line2d_20">
      <g>
       <use xlink:href="#mb5bf6e1ebc" x="715.176" y="156.672" style="stroke: #000000; stroke-width: 0.8"/>
      </g>
     </g>
     <g id="text_31">
      <!-- 0.6 -->
      <g transform="translate(708.019594 170.510594) scale(0.09 -0.09)">
       <use xlink:href="#DejaVuSans-30"/>
       <use xlink:href="#DejaVuSans-2e" transform="translate(63.623047 0)"/>
       <use xlink:href="#DejaVuSans-36" transform="translate(95.410156 0)"/>
      </g>
     </g>
    </g>
    <g id="xtick_18">
     <g id="line2d_21">
      <g>
       <use xlink:href="#mb5bf6e1ebc" x="749.628" y="156.672" style="stroke: #000000; stroke-width: 0.8"/>
      </g>
     </g>
     <g id="text_32">
      <!-- 0.8 -->
      <g transform="translate(742.471594 170.510594) scale(0.09 -0.09)">
       <use xlink:href="#DejaVuSans-30"/>
       <use xlink:href="#DejaVuSans-2e" transform="translate(63.623047 0)"/>
       <use xlink:href="#DejaVuSans-38" transform="translate(95.410156 0)"/>
      </g>
     </g>
    </g>
    <g id="xtick_19">
     <g id="line2d_22">
      <g>
       <use xlink:href="#mb5bf6e1ebc" x="784.08" y="156.672" style="stroke: #000000; stroke-width: 0.8"/>
      </g>
     </g>
     <g id="text_33">
      <!-- 1.0 -->
      <g transform="translate(776.923594 170.510594) scale(0.09 -0.09)">
       <use xlink:href="#DejaVuSans-31"/>
       <use xlink:href="#DejaVuSans-2e" transform="translate(63.623047 0)"/>
       <use xlink:href="#DejaVuSans-30" transform="translate(95.410156 0)"/>
      </g>
     </g>
    </g>
   </g>
   <g id="matplotlib.axis_6"/>
   <g id="patch_28">
    <path d="M 611.82 156.672 
L 611.82 29.376 
" style="fill: none; stroke: #000000; stroke-width: 0.8; stroke-linejoin: miter; stroke-linecap: square"/>
   </g>
   <g id="patch_29">
    <path d="M 784.08 156.672 
L 784.08 29.376 
" style="fill: none; stroke: #000000; stroke-width: 0.8; stroke-linejoin: miter; stroke-linecap: square"/>
   </g>
   <g id="patch_30">
    <path d="M 611.82 156.672 
L 784.08 156.672 
" style="fill: none; stroke: #000000; stroke-width: 0.8; stroke-linejoin: miter; stroke-linecap: square"/>
   </g>
   <g id="patch_31">
    <path d="M 611.82 29.376 
L 784.08 29.376 
" style="fill: none; stroke: #000000; stroke-width: 0.8; stroke-linejoin: miter; stroke-linecap: square"/>
   </g>
   <g id="text_34">
    <!-- c  state calls (eligible x 150) -->
    <g transform="translate(611.82 23.376) scale(0.085 -0.085)">
     <use xlink:href="#DejaVuSans-63"/>
     <use xlink:href="#DejaVuSans-20" transform="translate(54.980469 0)"/>
     <use xlink:href="#DejaVuSans-20" transform="translate(86.767578 0)"/>
     <use xlink:href="#DejaVuSans-73" transform="translate(118.554688 0)"/>
     <use xlink:href="#DejaVuSans-74" transform="translate(170.654297 0)"/>
     <use xlink:href="#DejaVuSans-61" transform="translate(209.863281 0)"/>
     <use xlink:href="#DejaVuSans-74" transform="translate(271.142578 0)"/>
     <use xlink:href="#DejaVuSans-65" transform="translate(310.351562 0)"/>
     <use xlink:href="#DejaVuSans-20" transform="translate(371.875 0)"/>
     <use xlink:href="#DejaVuSans-63" transform="translate(403.662109 0)"/>
     <use xlink:href="#DejaVuSans-61" transform="translate(458.642578 0)"/>
     <use xlink:href="#DejaVuSans-6c" transform="translate(519.921875 0)"/>
     <use xlink:href="#DejaVuSans-6c" transform="translate(547.705078 0)"/>
     <use xlink:href="#DejaVuSans-73" transform="translate(575.488281 0)"/>
     <use xlink:href="#DejaVuSans-20" transform="translate(627.587891 0)"/>
     <use xlink:href="#DejaVuSans-28" transform="translate(659.375 0)"/>
     <use xlink:href="#DejaVuSans-65" transform="translate(698.388672 0)"/>
     <use xlink:href="#DejaVuSans-6c" transform="translate(759.912109 0)"/>
     <use xlink:href="#DejaVuSans-69" transform="translate(787.695312 0)"/>
     <use xlink:href="#DejaVuSans-67" transform="translate(815.478516 0)"/>
     <use xlink:href="#DejaVuSans-69" transform="translate(878.955078 0)"/>
     <use xlink:href="#DejaVuSans-62" transform="translate(906.738281 0)"/>
     <use xlink:href="#DejaVuSans-6c" transform="translate(970.214844 0)"/>
     <use xlink:href="#DejaVuSans-65" transform="translate(997.998047 0)"/>
     <use xlink:href="#DejaVuSans-20" transform="translate(1059.521484 0)"/>
     <use xlink:href="#DejaVuSans-78" transform="translate(1091.308594 0)"/>
     <use xlink:href="#DejaVuSans-20" transform="translate(1150.488281 0)"/>
     <use xlink:href="#DejaVuSans-31" transform="translate(1182.275391 0)"/>
     <use xlink:href="#DejaVuSans-35" transform="translate(1245.898438 0)"/>
     <use xlink:href="#DejaVuSans-30" transform="translate(1309.521484 0)"/>
     <use xlink:href="#DejaVuSans-29" transform="translate(1373.144531 0)"/>
    </g>
   </g>
   <g id="legend_2">
    <g id="patch_32">
     <path d="M 652.119922 182.736504 
L 665.119922 182.736504 
L 665.119922 178.186504 
L 652.119922 178.186504 
z
" style="fill: #2f7d4f"/>
    </g>
    <g id="text_35">
     <!-- MAPPED 0.726 -->
     <g transform="translate(670.319922 182.736504) scale(0.065 -0.065)">
      <use xlink:href="#DejaVuSans-4d"/>
      <use xlink:href="#DejaVuSans-41" transform="translate(86.279297 0)"/>
      <use xlink:href="#DejaVuSans-50" transform="translate(154.6875 0)"/>
      <use xlink:href="#DejaVuSans-50" transform="translate(214.990234 0)"/>
      <use xlink:href="#DejaVuSans-45" transform="translate(275.292969 0)"/>
      <use xlink:href="#DejaVuSans-44" transform="translate(338.476562 0)"/>
      <use xlink:href="#DejaVuSans-20" transform="translate(415.478516 0)"/>
      <use xlink:href="#DejaVuSans-30" transform="translate(447.265625 0)"/>
      <use xlink:href="#DejaVuSans-2e" transform="translate(510.888672 0)"/>
      <use xlink:href="#DejaVuSans-37" transform="translate(542.675781 0)"/>
      <use xlink:href="#DejaVuSans-32" transform="translate(606.298828 0)"/>
      <use xlink:href="#DejaVuSans-36" transform="translate(669.921875 0)"/>
     </g>
    </g>
    <g id="patch_33">
     <path d="M 652.119922 192.277286 
L 665.119922 192.277286 
L 665.119922 187.727286 
L 652.119922 187.727286 
z
" style="fill: #d08a1c"/>
    </g>
    <g id="text_36">
     <!-- AMBIGUOUS 0.048 -->
     <g transform="translate(670.319922 192.277286) scale(0.065 -0.065)">
      <use xlink:href="#DejaVuSans-41"/>
      <use xlink:href="#DejaVuSans-4d" transform="translate(68.408203 0)"/>
      <use xlink:href="#DejaVuSans-42" transform="translate(154.6875 0)"/>
      <use xlink:href="#DejaVuSans-49" transform="translate(223.291016 0)"/>
      <use xlink:href="#DejaVuSans-47" transform="translate(252.783203 0)"/>
      <use xlink:href="#DejaVuSans-55" transform="translate(330.273438 0)"/>
      <use xlink:href="#DejaVuSans-4f" transform="translate(403.466797 0)"/>
      <use xlink:href="#DejaVuSans-55" transform="translate(482.177734 0)"/>
      <use xlink:href="#DejaVuSans-53" transform="translate(555.371094 0)"/>
      <use xlink:href="#DejaVuSans-20" transform="translate(618.847656 0)"/>
      <use xlink:href="#DejaVuSans-30" transform="translate(650.634766 0)"/>
      <use xlink:href="#DejaVuSans-2e" transform="translate(714.257812 0)"/>
      <use xlink:href="#DejaVuSans-30" transform="translate(746.044922 0)"/>
      <use xlink:href="#DejaVuSans-34" transform="translate(809.667969 0)"/>
      <use xlink:href="#DejaVuSans-38" transform="translate(873.291016 0)"/>
     </g>
    </g>
    <g id="patch_34">
     <path d="M 652.119922 201.818067 
L 665.119922 201.818067 
L 665.119922 197.268067 
L 652.119922 197.268067 
z
" style="fill: #7fa9c9"/>
    </g>
    <g id="text_37">
     <!-- UNSUPPORTED 0.046 -->
     <g transform="translate(670.319922 201.818067) scale(0.065 -0.065)">
      <use xlink:href="#DejaVuSans-55"/>
      <use xlink:href="#DejaVuSans-4e" transform="translate(73.193359 0)"/>
      <use xlink:href="#DejaVuSans-53" transform="translate(147.998047 0)"/>
      <use xlink:href="#DejaVuSans-55" transform="translate(211.474609 0)"/>
      <use xlink:href="#DejaVuSans-50" transform="translate(284.667969 0)"/>
      <use xlink:href="#DejaVuSans-50" transform="translate(344.970703 0)"/>
      <use xlink:href="#DejaVuSans-4f" transform="translate(405.273438 0)"/>
      <use xlink:href="#DejaVuSans-52" transform="translate(483.984375 0)"/>
      <use xlink:href="#DejaVuSans-54" transform="translate(546.216797 0)"/>
      <use xlink:href="#DejaVuSans-45" transform="translate(607.300781 0)"/>
      <use xlink:href="#DejaVuSans-44" transform="translate(670.484375 0)"/>
      <use xlink:href="#DejaVuSans-20" transform="translate(747.486328 0)"/>
      <use xlink:href="#DejaVuSans-30" transform="translate(779.273438 0)"/>
      <use xlink:href="#DejaVuSans-2e" transform="translate(842.896484 0)"/>
      <use xlink:href="#DejaVuSans-30" transform="translate(874.683594 0)"/>
      <use xlink:href="#DejaVuSans-34" transform="translate(938.306641 0)"/>
      <use xlink:href="#DejaVuSans-36" transform="translate(1001.929688 0)"/>
     </g>
    </g>
    <g id="patch_35">
     <path d="M 652.119922 211.358848 
L 665.119922 211.358848 
L 665.119922 206.808848 
L 652.119922 206.808848 
z
" style="fill: #9aa5b1"/>
    </g>
    <g id="text_38">
     <!-- DELETED_STATE 0.179 -->
     <g transform="translate(670.319922 211.358848) scale(0.065 -0.065)">
      <use xlink:href="#DejaVuSans-44"/>
      <use xlink:href="#DejaVuSans-45" transform="translate(77.001953 0)"/>
      <use xlink:href="#DejaVuSans-4c" transform="translate(140.185547 0)"/>
      <use xlink:href="#DejaVuSans-45" transform="translate(195.898438 0)"/>
      <use xlink:href="#DejaVuSans-54" transform="translate(259.082031 0)"/>
      <use xlink:href="#DejaVuSans-45" transform="translate(320.166016 0)"/>
      <use xlink:href="#DejaVuSans-44" transform="translate(383.349609 0)"/>
      <use xlink:href="#DejaVuSans-5f" transform="translate(460.351562 0)"/>
      <use xlink:href="#DejaVuSans-53" transform="translate(510.351562 0)"/>
      <use xlink:href="#DejaVuSans-54" transform="translate(573.828125 0)"/>
      <use xlink:href="#DejaVuSans-41" transform="translate(627.162109 0)"/>
      <use xlink:href="#DejaVuSans-54" transform="translate(687.820312 0)"/>
      <use xlink:href="#DejaVuSans-45" transform="translate(748.904297 0)"/>
      <use xlink:href="#DejaVuSans-20" transform="translate(812.087891 0)"/>
      <use xlink:href="#DejaVuSans-30" transform="translate(843.875 0)"/>
      <use xlink:href="#DejaVuSans-2e" transform="translate(907.498047 0)"/>
      <use xlink:href="#DejaVuSans-31" transform="translate(939.285156 0)"/>
      <use xlink:href="#DejaVuSans-37" transform="translate(1002.908203 0)"/>
      <use xlink:href="#DejaVuSans-39" transform="translate(1066.53125 0)"/>
     </g>
    </g>
   </g>
  </g>
  <g id="text_39">
   <!-- Abstention, NO_SUPPORTED_MAPPING and DELETED_STATE are instrument outcomes, not biological absence. Panel c counts state calls over all eligible sequences (369,381 x 150). -->
   <g style="fill: #6b7b8a" transform="translate(7.92 241.925531) scale(0.07 -0.07)">
    <defs>
     <path id="DejaVuSans-76" d="M 191 3500 
L 800 3500 
L 1894 563 
L 2988 3500 
L 3597 3500 
L 2284 0 
L 1503 0 
L 191 3500 
z
" transform="scale(0.015625)"/>
    </defs>
    <use xlink:href="#DejaVuSans-41"/>
    <use xlink:href="#DejaVuSans-62" transform="translate(68.408203 0)"/>
    <use xlink:href="#DejaVuSans-73" transform="translate(131.884766 0)"/>
    <use xlink:href="#DejaVuSans-74" transform="translate(183.984375 0)"/>
    <use xlink:href="#DejaVuSans-65" transform="translate(223.193359 0)"/>
    <use xlink:href="#DejaVuSans-6e" transform="translate(284.716797 0)"/>
    <use xlink:href="#DejaVuSans-74" transform="translate(348.095703 0)"/>
    <use xlink:href="#DejaVuSans-69" transform="translate(387.304688 0)"/>
    <use xlink:href="#DejaVuSans-6f" transform="translate(415.087891 0)"/>
    <use xlink:href="#DejaVuSans-6e" transform="translate(476.269531 0)"/>
    <use xlink:href="#DejaVuSans-2c" transform="translate(539.648438 0)"/>
    <use xlink:href="#DejaVuSans-20" transform="translate(571.435547 0)"/>
    <use xlink:href="#DejaVuSans-4e" transform="translate(603.222656 0)"/>
    <use xlink:href="#DejaVuSans-4f" transform="translate(678.027344 0)"/>
    <use xlink:href="#DejaVuSans-5f" transform="translate(756.738281 0)"/>
    <use xlink:href="#DejaVuSans-53" transform="translate(806.738281 0)"/>
    <use xlink:href="#DejaVuSans-55" transform="translate(870.214844 0)"/>
    <use xlink:href="#DejaVuSans-50" transform="translate(943.408203 0)"/>
    <use xlink:href="#DejaVuSans-50" transform="translate(1003.710938 0)"/>
    <use xlink:href="#DejaVuSans-4f" transform="translate(1064.013672 0)"/>
    <use xlink:href="#DejaVuSans-52" transform="translate(1142.724609 0)"/>
    <use xlink:href="#DejaVuSans-54" transform="translate(1204.957031 0)"/>
    <use xlink:href="#DejaVuSans-45" transform="translate(1266.041016 0)"/>
    <use xlink:href="#DejaVuSans-44" transform="translate(1329.224609 0)"/>
    <use xlink:href="#DejaVuSans-5f" transform="translate(1406.226562 0)"/>
    <use xlink:href="#DejaVuSans-4d" transform="translate(1456.226562 0)"/>
    <use xlink:href="#DejaVuSans-41" transform="translate(1542.505859 0)"/>
    <use xlink:href="#DejaVuSans-50" transform="translate(1610.914062 0)"/>
    <use xlink:href="#DejaVuSans-50" transform="translate(1671.216797 0)"/>
    <use xlink:href="#DejaVuSans-49" transform="translate(1731.519531 0)"/>
    <use xlink:href="#DejaVuSans-4e" transform="translate(1761.011719 0)"/>
    <use xlink:href="#DejaVuSans-47" transform="translate(1835.816406 0)"/>
    <use xlink:href="#DejaVuSans-20" transform="translate(1913.306641 0)"/>
    <use xlink:href="#DejaVuSans-61" transform="translate(1945.09375 0)"/>
    <use xlink:href="#DejaVuSans-6e" transform="translate(2006.373047 0)"/>
    <use xlink:href="#DejaVuSans-64" transform="translate(2069.751953 0)"/>
    <use xlink:href="#DejaVuSans-20" transform="translate(2133.228516 0)"/>
    <use xlink:href="#DejaVuSans-44" transform="translate(2165.015625 0)"/>
    <use xlink:href="#DejaVuSans-45" transform="translate(2242.017578 0)"/>
    <use xlink:href="#DejaVuSans-4c" transform="translate(2305.201172 0)"/>
    <use xlink:href="#DejaVuSans-45" transform="translate(2360.914062 0)"/>
    <use xlink:href="#DejaVuSans-54" transform="translate(2424.097656 0)"/>
    <use xlink:href="#DejaVuSans-45" transform="translate(2485.181641 0)"/>
    <use xlink:href="#DejaVuSans-44" transform="translate(2548.365234 0)"/>
    <use xlink:href="#DejaVuSans-5f" transform="translate(2625.367188 0)"/>
    <use xlink:href="#DejaVuSans-53" transform="translate(2675.367188 0)"/>
    <use xlink:href="#DejaVuSans-54" transform="translate(2738.84375 0)"/>
    <use xlink:href="#DejaVuSans-41" transform="translate(2792.177734 0)"/>
    <use xlink:href="#DejaVuSans-54" transform="translate(2852.835938 0)"/>
    <use xlink:href="#DejaVuSans-45" transform="translate(2913.919922 0)"/>
    <use xlink:href="#DejaVuSans-20" transform="translate(2977.103516 0)"/>
    <use xlink:href="#DejaVuSans-61" transform="translate(3008.890625 0)"/>
    <use xlink:href="#DejaVuSans-72" transform="translate(3070.169922 0)"/>
    <use xlink:href="#DejaVuSans-65" transform="translate(3109.033203 0)"/>
    <use xlink:href="#DejaVuSans-20" transform="translate(3170.556641 0)"/>
    <use xlink:href="#DejaVuSans-69" transform="translate(3202.34375 0)"/>
    <use xlink:href="#DejaVuSans-6e" transform="translate(3230.126953 0)"/>
    <use xlink:href="#DejaVuSans-73" transform="translate(3293.505859 0)"/>
    <use xlink:href="#DejaVuSans-74" transform="translate(3345.605469 0)"/>
    <use xlink:href="#DejaVuSans-72" transform="translate(3384.814453 0)"/>
    <use xlink:href="#DejaVuSans-75" transform="translate(3425.927734 0)"/>
    <use xlink:href="#DejaVuSans-6d" transform="translate(3489.306641 0)"/>
    <use xlink:href="#DejaVuSans-65" transform="translate(3586.71875 0)"/>
    <use xlink:href="#DejaVuSans-6e" transform="translate(3648.242188 0)"/>
    <use xlink:href="#DejaVuSans-74" transform="translate(3711.621094 0)"/>
    <use xlink:href="#DejaVuSans-20" transform="translate(3750.830078 0)"/>
    <use xlink:href="#DejaVuSans-6f" transform="translate(3782.617188 0)"/>
    <use xlink:href="#DejaVuSans-75" transform="translate(3843.798828 0)"/>
    <use xlink:href="#DejaVuSans-74" transform="translate(3907.177734 0)"/>
    <use xlink:href="#DejaVuSans-63" transform="translate(3946.386719 0)"/>
    <use xlink:href="#DejaVuSans-6f" transform="translate(4001.367188 0)"/>
    <use xlink:href="#DejaVuSans-6d" transform="translate(4062.548828 0)"/>
    <use xlink:href="#DejaVuSans-65" transform="translate(4159.960938 0)"/>
    <use xlink:href="#DejaVuSans-73" transform="translate(4221.484375 0)"/>
    <use xlink:href="#DejaVuSans-2c" transform="translate(4273.583984 0)"/>
    <use xlink:href="#DejaVuSans-20" transform="translate(4305.371094 0)"/>
    <use xlink:href="#DejaVuSans-6e" transform="translate(4337.158203 0)"/>
    <use xlink:href="#DejaVuSans-6f" transform="translate(4400.537109 0)"/>
    <use xlink:href="#DejaVuSans-74" transform="translate(4461.71875 0)"/>
    <use xlink:href="#DejaVuSans-20" transform="translate(4500.927734 0)"/>
    <use xlink:href="#DejaVuSans-62" transform="translate(4532.714844 0)"/>
    <use xlink:href="#DejaVuSans-69" transform="translate(4596.191406 0)"/>
    <use xlink:href="#DejaVuSans-6f" transform="translate(4623.974609 0)"/>
    <use xlink:href="#DejaVuSans-6c" transform="translate(4685.15625 0)"/>
    <use xlink:href="#DejaVuSans-6f" transform="translate(4712.939453 0)"/>
    <use xlink:href="#DejaVuSans-67" transform="translate(4774.121094 0)"/>
    <use xlink:href="#DejaVuSans-69" transform="translate(4837.597656 0)"/>
    <use xlink:href="#DejaVuSans-63" transform="translate(4865.380859 0)"/>
    <use xlink:href="#DejaVuSans-61" transform="translate(4920.361328 0)"/>
    <use xlink:href="#DejaVuSans-6c" transform="translate(4981.640625 0)"/>
    <use xlink:href="#DejaVuSans-20" transform="translate(5009.423828 0)"/>
    <use xlink:href="#DejaVuSans-61" transform="translate(5041.210938 0)"/>
    <use xlink:href="#DejaVuSans-62" transform="translate(5102.490234 0)"/>
    <use xlink:href="#DejaVuSans-73" transform="translate(5165.966797 0)"/>
    <use xlink:href="#DejaVuSans-65" transform="translate(5218.066406 0)"/>
    <use xlink:href="#DejaVuSans-6e" transform="translate(5279.589844 0)"/>
    <use xlink:href="#DejaVuSans-63" transform="translate(5342.96875 0)"/>
    <use xlink:href="#DejaVuSans-65" transform="translate(5397.949219 0)"/>
    <use xlink:href="#DejaVuSans-2e" transform="translate(5459.472656 0)"/>
    <use xlink:href="#DejaVuSans-20" transform="translate(5491.259766 0)"/>
    <use xlink:href="#DejaVuSans-50" transform="translate(5523.046875 0)"/>
    <use xlink:href="#DejaVuSans-61" transform="translate(5578.849609 0)"/>
    <use xlink:href="#DejaVuSans-6e" transform="translate(5640.128906 0)"/>
    <use xlink:href="#DejaVuSans-65" transform="translate(5703.507812 0)"/>
    <use xlink:href="#DejaVuSans-6c" transform="translate(5765.03125 0)"/>
    <use xlink:href="#DejaVuSans-20" transform="translate(5792.814453 0)"/>
    <use xlink:href="#DejaVuSans-63" transform="translate(5824.601562 0)"/>
    <use xlink:href="#DejaVuSans-20" transform="translate(5879.582031 0)"/>
    <use xlink:href="#DejaVuSans-63" transform="translate(5911.369141 0)"/>
    <use xlink:href="#DejaVuSans-6f" transform="translate(5966.349609 0)"/>
    <use xlink:href="#DejaVuSans-75" transform="translate(6027.53125 0)"/>
    <use xlink:href="#DejaVuSans-6e" transform="translate(6090.910156 0)"/>
    <use xlink:href="#DejaVuSans-74" transform="translate(6154.289062 0)"/>
    <use xlink:href="#DejaVuSans-73" transform="translate(6193.498047 0)"/>
    <use xlink:href="#DejaVuSans-20" transform="translate(6245.597656 0)"/>
    <use xlink:href="#DejaVuSans-73" transform="translate(6277.384766 0)"/>
    <use xlink:href="#DejaVuSans-74" transform="translate(6329.484375 0)"/>
    <use xlink:href="#DejaVuSans-61" transform="translate(6368.693359 0)"/>
    <use xlink:href="#DejaVuSans-74" transform="translate(6429.972656 0)"/>
    <use xlink:href="#DejaVuSans-65" transform="translate(6469.181641 0)"/>
    <use xlink:href="#DejaVuSans-20" transform="translate(6530.705078 0)"/>
    <use xlink:href="#DejaVuSans-63" transform="translate(6562.492188 0)"/>
    <use xlink:href="#DejaVuSans-61" transform="translate(6617.472656 0)"/>
    <use xlink:href="#DejaVuSans-6c" transform="translate(6678.751953 0)"/>
    <use xlink:href="#DejaVuSans-6c" transform="translate(6706.535156 0)"/>
    <use xlink:href="#DejaVuSans-73" transform="translate(6734.318359 0)"/>
    <use xlink:href="#DejaVuSans-20" transform="translate(6786.417969 0)"/>
    <use xlink:href="#DejaVuSans-6f" transform="translate(6818.205078 0)"/>
    <use xlink:href="#DejaVuSans-76" transform="translate(6879.386719 0)"/>
    <use xlink:href="#DejaVuSans-65" transform="translate(6938.566406 0)"/>
    <use xlink:href="#DejaVuSans-72" transform="translate(7000.089844 0)"/>
    <use xlink:href="#DejaVuSans-20" transform="translate(7041.203125 0)"/>
    <use xlink:href="#DejaVuSans-61" transform="translate(7072.990234 0)"/>
    <use xlink:href="#DejaVuSans-6c" transform="translate(7134.269531 0)"/>
    <use xlink:href="#DejaVuSans-6c" transform="translate(7162.052734 0)"/>
    <use xlink:href="#DejaVuSans-20" transform="translate(7189.835938 0)"/>
    <use xlink:href="#DejaVuSans-65" transform="translate(7221.623047 0)"/>
    <use xlink:href="#DejaVuSans-6c" transform="translate(7283.146484 0)"/>
    <use xlink:href="#DejaVuSans-69" transform="translate(7310.929688 0)"/>
    <use xlink:href="#DejaVuSans-67" transform="translate(7338.712891 0)"/>
    <use xlink:href="#DejaVuSans-69" transform="translate(7402.189453 0)"/>
    <use xlink:href="#DejaVuSans-62" transform="translate(7429.972656 0)"/>
    <use xlink:href="#DejaVuSans-6c" transform="translate(7493.449219 0)"/>
    <use xlink:href="#DejaVuSans-65" transform="translate(7521.232422 0)"/>
    <use xlink:href="#DejaVuSans-20" transform="translate(7582.755859 0)"/>
    <use xlink:href="#DejaVuSans-73" transform="translate(7614.542969 0)"/>
    <use xlink:href="#DejaVuSans-65" transform="translate(7666.642578 0)"/>
    <use xlink:href="#DejaVuSans-71" transform="translate(7728.166016 0)"/>
    <use xlink:href="#DejaVuSans-75" transform="translate(7791.642578 0)"/>
    <use xlink:href="#DejaVuSans-65" transform="translate(7855.021484 0)"/>
    <use xlink:href="#DejaVuSans-6e" transform="translate(7916.544922 0)"/>
    <use xlink:href="#DejaVuSans-63" transform="translate(7979.923828 0)"/>
    <use xlink:href="#DejaVuSans-65" transform="translate(8034.904297 0)"/>
    <use xlink:href="#DejaVuSans-73" transform="translate(8096.427734 0)"/>
    <use xlink:href="#DejaVuSans-20" transform="translate(8148.527344 0)"/>
    <use xlink:href="#DejaVuSans-28" transform="translate(8180.314453 0)"/>
    <use xlink:href="#DejaVuSans-33" transform="translate(8219.328125 0)"/>
    <use xlink:href="#DejaVuSans-36" transform="translate(8282.951172 0)"/>
    <use xlink:href="#DejaVuSans-39" transform="translate(8346.574219 0)"/>
    <use xlink:href="#DejaVuSans-2c" transform="translate(8410.197266 0)"/>
    <use xlink:href="#DejaVuSans-33" transform="translate(8441.984375 0)"/>
    <use xlink:href="#DejaVuSans-38" transform="translate(8505.607422 0)"/>
    <use xlink:href="#DejaVuSans-31" transform="translate(8569.230469 0)"/>
    <use xlink:href="#DejaVuSans-20" transform="translate(8632.853516 0)"/>
    <use xlink:href="#DejaVuSans-78" transform="translate(8664.640625 0)"/>
    <use xlink:href="#DejaVuSans-20" transform="translate(8723.820312 0)"/>
    <use xlink:href="#DejaVuSans-31" transform="translate(8755.607422 0)"/>
    <use xlink:href="#DejaVuSans-35" transform="translate(8819.230469 0)"/>
    <use xlink:href="#DejaVuSans-30" transform="translate(8882.853516 0)"/>
    <use xlink:href="#DejaVuSans-29" transform="translate(8946.476562 0)"/>
    <use xlink:href="#DejaVuSans-2e" transform="translate(8985.490234 0)"/>
   </g>
  </g>
 </g>
 <defs>
  <clipPath id="p968a87eab6">
   <rect x="95.04" y="29.376" width="229.68" height="127.296"/>
  </clipPath>
  <clipPath id="p49daffdc1c">
   <rect x="382.14" y="29.376" width="172.26" height="127.296"/>
  </clipPath>
  <clipPath id="pb961c70c4a">
   <rect x="611.82" y="29.376" width="172.26" height="127.296"/>
  </clipPath>
 </defs>
</svg>
